<svg id="svg" version="1.1" xmlns="http://www.w3.org/2000/svg" xmlns:xlink="http://www.w3.org/1999/xlink" width="400" height="400" viewBox="0, 0, 400,400"><g id="svgg"><path id="path0" d="M305.132 128.942 C 302.811 129.666,300.173 131.763,298.937 133.866 L 297.800 135.800 297.800 258.200 L 297.800 380.600 298.885 382.445 C 302.287 388.232,300.957 388.040,336.833 387.910 L 367.000 387.800 368.858 386.708 C 370.953 385.476,372.505 383.791,373.515 381.652 C 374.153 380.299,374.214 374.350,374.400 294.800 C 374.591 213.068,374.631 209.354,375.328 208.328 C 376.209 207.030,377.309 206.282,379.300 205.630 L 380.800 205.138 380.800 200.049 C 380.800 194.643,380.598 194.000,378.905 194.000 C 378.369 194.000,377.250 193.329,376.285 192.429 L 374.600 190.858 374.400 163.529 L 374.200 136.200 373.173 134.200 C 372.009 131.931,369.293 129.663,366.828 128.900 C 364.618 128.216,307.334 128.255,305.132 128.942 " stroke="none" fill="#54c8cb" fill-rule="evenodd"></path><path id="path1" d="M70.200 242.775 C 61.909 243.034,60.326 243.585,57.866 247.064 C 55.627 250.232,55.636 250.036,55.617 291.809 L 55.600 330.218 54.379 331.699 C 53.583 332.664,52.573 333.348,51.479 333.660 C 48.776 334.433,48.800 334.376,48.800 339.973 L 48.800 345.049 50.700 345.544 C 55.597 346.821,55.600 346.832,55.600 363.187 C 55.600 381.402,56.103 383.593,60.969 386.588 L 62.937 387.800 94.369 387.800 L 125.800 387.800 127.200 386.836 C 127.970 386.305,129.108 385.405,129.728 384.836 C 130.775 383.874,131.132 383.252,132.344 380.281 C 132.997 378.680,132.997 252.120,132.344 250.519 C 129.045 242.429,128.824 242.375,99.480 242.475 C 87.336 242.516,74.160 242.651,70.200 242.775 " stroke="none" fill="#f3b154" fill-rule="evenodd"></path><path id="path2" d="M184.600 185.868 C 181.826 186.515,178.982 188.949,177.624 191.838 L 176.800 193.591 176.800 286.800 L 176.800 380.009 177.671 381.862 C 178.654 383.954,180.586 386.044,182.506 387.093 C 183.712 387.752,185.932 387.800,215.200 387.800 L 246.600 387.800 248.233 386.737 C 250.019 385.575,251.649 383.798,252.715 381.852 C 253.419 380.566,254.064 201.592,253.388 194.897 C 253.077 191.813,251.502 189.280,248.613 187.218 L 246.626 185.800 216.013 185.740 C 199.176 185.708,185.040 185.765,184.600 185.868 " stroke="none" fill="#fc6c74" fill-rule="evenodd"></path><path id="path3" d="M370.600 0.283 C 369.060 0.370,367.629 0.612,367.420 0.820 C 367.211 1.029,365.827 1.200,364.344 1.200 C 362.861 1.200,361.536 1.380,361.400 1.600 C 361.264 1.820,359.914 2.000,358.400 2.000 C 356.886 2.000,355.536 2.180,355.400 2.400 C 355.264 2.620,353.813 2.800,352.176 2.800 C 350.459 2.800,349.200 2.969,349.200 3.200 C 349.200 3.429,348.000 3.600,346.400 3.600 C 344.800 3.600,343.600 3.771,343.600 4.000 C 343.600 4.231,342.341 4.400,340.624 4.400 C 338.987 4.400,337.536 4.580,337.400 4.800 C 337.264 5.020,335.813 5.200,334.176 5.200 C 332.459 5.200,331.200 5.369,331.200 5.600 C 331.200 5.829,330.000 6.000,328.400 6.000 C 326.800 6.000,325.600 6.171,325.600 6.400 C 325.600 6.620,324.608 6.800,323.395 6.800 C 321.471 6.800,319.861 7.272,319.200 8.029 C 319.090 8.155,318.685 8.375,318.300 8.517 C 317.915 8.659,317.600 9.051,317.600 9.387 C 317.600 9.724,317.420 10.000,317.200 10.000 C 316.980 10.000,316.800 10.349,316.800 10.776 C 316.800 11.203,316.620 11.664,316.400 11.800 C 316.180 11.936,316.000 12.656,316.000 13.400 C 316.000 14.144,316.180 14.864,316.400 15.000 C 316.620 15.136,316.800 15.597,316.800 16.024 C 316.800 16.451,316.980 16.800,317.200 16.800 C 317.420 16.800,317.600 17.094,317.600 17.453 C 317.600 17.812,317.924 18.397,318.319 18.753 C 318.714 19.109,319.471 20.030,320.000 20.800 C 320.529 21.570,321.286 22.491,321.681 22.847 C 322.076 23.203,322.400 23.653,322.400 23.848 C 322.400 24.043,322.940 24.712,323.600 25.335 C 324.260 25.958,324.800 26.656,324.800 26.887 C 324.800 27.118,325.115 27.599,325.500 27.957 C 326.177 28.587,327.200 30.174,327.200 30.595 C 327.200 30.708,326.928 30.800,326.596 30.800 C 326.264 30.800,325.428 31.340,324.737 32.000 C 324.046 32.660,323.326 33.200,323.137 33.200 C 322.948 33.200,322.228 33.740,321.537 34.400 C 320.846 35.060,320.126 35.600,319.937 35.600 C 319.748 35.600,319.028 36.140,318.337 36.800 C 317.646 37.460,316.878 38.000,316.629 38.000 C 316.380 38.000,315.917 38.360,315.600 38.800 C 315.283 39.240,314.793 39.600,314.512 39.600 C 314.230 39.600,314.000 39.780,314.000 40.000 C 314.000 40.220,313.770 40.400,313.488 40.400 C 313.207 40.400,312.717 40.760,312.400 41.200 C 312.083 41.640,311.659 42.000,311.459 42.000 C 311.258 42.000,310.803 42.324,310.447 42.721 C 310.091 43.117,309.164 43.828,308.386 44.300 C 307.609 44.772,306.439 45.618,305.786 46.179 C 305.134 46.740,304.457 47.199,304.282 47.200 C 304.107 47.200,303.514 47.650,302.964 48.200 C 302.414 48.750,301.814 49.200,301.632 49.200 C 301.450 49.200,300.613 49.830,299.772 50.600 C 298.931 51.370,298.102 52.000,297.929 52.000 C 297.630 52.000,296.289 53.095,294.132 55.100 C 293.599 55.595,292.974 56.000,292.742 56.000 C 292.511 56.000,291.817 56.540,291.200 57.200 C 290.583 57.860,289.806 58.400,289.473 58.400 C 289.139 58.400,288.791 58.625,288.699 58.900 C 288.597 59.206,287.925 58.775,286.966 57.787 C 286.105 56.900,284.770 55.734,284.000 55.197 C 283.230 54.659,281.599 53.205,280.376 51.964 C 279.152 50.724,277.715 49.476,277.181 49.190 C 276.648 48.904,275.498 47.874,274.626 46.900 C 273.755 45.926,272.241 44.578,271.262 43.905 C 270.283 43.231,268.590 41.807,267.500 40.740 C 266.411 39.673,265.267 38.800,264.959 38.800 C 264.652 38.800,264.400 38.620,264.400 38.400 C 264.400 38.180,264.040 38.000,263.600 38.000 C 263.160 38.000,262.800 37.820,262.800 37.600 C 262.800 37.380,262.440 37.200,262.000 37.200 C 261.560 37.200,261.200 37.020,261.200 36.800 C 261.200 36.580,260.491 36.400,259.624 36.400 C 258.757 36.400,257.936 36.220,257.800 36.000 C 257.474 35.473,251.200 35.473,251.200 36.000 C 251.200 36.220,250.480 36.400,249.600 36.400 C 248.720 36.400,248.000 36.580,248.000 36.800 C 248.000 37.020,247.550 37.200,247.000 37.200 C 246.450 37.200,246.000 37.380,246.000 37.600 C 246.000 37.820,245.712 38.000,245.360 38.000 C 245.009 38.000,244.217 38.540,243.600 39.200 C 242.983 39.860,242.263 40.400,242.000 40.400 C 241.737 40.400,241.017 40.940,240.400 41.600 C 239.783 42.260,239.068 42.800,238.811 42.800 C 238.553 42.800,238.092 43.025,237.785 43.300 C 236.491 44.461,236.014 44.800,235.676 44.800 C 235.480 44.800,234.754 45.340,234.063 46.000 C 233.372 46.660,232.660 47.200,232.479 47.200 C 232.299 47.200,231.802 47.520,231.375 47.911 C 230.949 48.302,229.972 49.064,229.205 49.605 C 228.438 50.147,227.538 50.826,227.205 51.115 C 226.872 51.404,225.996 52.172,225.258 52.821 C 224.519 53.469,223.763 54.000,223.576 54.000 C 223.389 54.000,222.786 54.450,222.236 55.000 C 221.686 55.550,221.075 56.000,220.878 56.000 C 220.680 56.000,219.954 56.540,219.263 57.200 C 218.572 57.860,217.871 58.402,217.704 58.405 C 217.537 58.408,216.950 58.766,216.400 59.201 C 215.850 59.636,214.230 60.842,212.800 61.883 C 211.370 62.923,209.909 64.095,209.553 64.487 C 209.197 64.879,208.729 65.200,208.512 65.200 C 208.296 65.200,207.554 65.740,206.863 66.400 C 206.172 67.060,205.452 67.600,205.263 67.600 C 205.074 67.600,204.354 68.140,203.663 68.800 C 202.972 69.460,202.252 70.000,202.063 70.000 C 201.874 70.000,201.154 70.540,200.463 71.200 C 199.772 71.860,199.052 72.400,198.863 72.400 C 198.674 72.400,197.954 72.940,197.263 73.600 C 196.572 74.260,195.826 74.800,195.604 74.800 C 195.382 74.800,195.200 74.980,195.200 75.200 C 195.200 75.420,194.942 75.600,194.627 75.600 C 194.312 75.600,193.940 75.960,193.800 76.400 C 193.660 76.840,193.217 77.200,192.815 77.200 C 192.413 77.200,191.507 77.740,190.800 78.400 C 190.093 79.060,189.363 79.600,189.176 79.600 C 188.989 79.600,188.386 80.050,187.836 80.600 C 187.286 81.150,186.675 81.600,186.478 81.600 C 186.280 81.600,185.554 82.140,184.863 82.800 C 184.172 83.460,183.452 84.000,183.263 84.000 C 183.074 84.000,182.354 84.540,181.663 85.200 C 180.972 85.860,180.271 86.401,180.104 86.402 C 179.937 86.403,179.225 86.943,178.522 87.602 C 177.819 88.261,177.126 88.800,176.982 88.800 C 176.839 88.800,176.217 89.340,175.600 90.000 C 174.983 90.660,174.263 91.200,174.000 91.200 C 173.737 91.200,173.017 91.740,172.400 92.400 C 171.783 93.060,171.036 93.603,170.740 93.606 C 170.443 93.610,169.591 94.150,168.846 94.806 C 168.101 95.463,167.344 96.000,167.164 96.000 C 166.984 96.000,166.386 96.450,165.836 97.000 C 165.286 97.550,164.675 98.000,164.478 98.000 C 164.280 98.000,163.554 98.540,162.863 99.200 C 162.172 99.860,161.498 100.400,161.364 100.400 C 161.230 100.400,160.617 100.940,160.000 101.600 C 159.383 102.260,158.663 102.800,158.400 102.800 C 158.137 102.800,157.417 103.340,156.800 104.000 C 156.183 104.660,155.463 105.200,155.200 105.200 C 154.937 105.200,154.217 105.740,153.600 106.400 C 152.983 107.060,152.263 107.600,152.000 107.600 C 151.737 107.600,151.017 108.140,150.400 108.800 C 149.783 109.460,149.002 110.000,148.663 110.000 C 148.324 110.000,147.942 110.171,147.812 110.380 C 147.541 110.818,142.890 114.400,142.592 114.400 C 142.482 114.400,141.828 114.940,141.137 115.600 C 139.316 117.340,138.118 117.149,135.470 114.700 C 134.816 114.095,134.126 113.600,133.937 113.600 C 133.748 113.600,133.028 113.060,132.337 112.400 C 131.646 111.740,130.915 111.200,130.712 111.200 C 130.509 111.200,130.092 110.975,129.785 110.700 C 128.462 109.513,128.009 109.200,127.617 109.200 C 127.388 109.200,127.200 109.020,127.200 108.800 C 127.200 108.580,127.012 108.400,126.782 108.400 C 126.552 108.400,125.944 107.995,125.432 107.500 C 124.247 106.355,123.350 105.632,121.600 104.413 C 120.830 103.877,119.909 103.114,119.553 102.719 C 119.197 102.324,118.652 102.000,118.341 102.000 C 118.031 102.000,117.517 101.640,117.200 101.200 C 116.883 100.760,116.303 100.400,115.912 100.400 C 115.520 100.400,115.200 100.220,115.200 100.000 C 115.200 99.780,114.840 99.600,114.400 99.600 C 113.960 99.600,113.600 99.420,113.600 99.200 C 113.600 98.980,113.060 98.800,112.400 98.800 C 111.740 98.800,111.200 98.620,111.200 98.400 C 111.200 97.840,102.212 97.887,100.428 98.456 C 98.292 99.138,95.600 100.480,95.600 100.863 C 95.600 101.048,95.332 101.200,95.003 101.200 C 94.675 101.200,94.182 101.560,93.907 102.000 C 93.632 102.440,93.208 102.800,92.963 102.800 C 92.719 102.800,91.954 103.340,91.263 104.000 C 90.572 104.660,89.852 105.200,89.663 105.200 C 89.474 105.200,88.754 105.740,88.063 106.400 C 87.372 107.060,86.652 107.600,86.463 107.600 C 86.274 107.600,85.588 108.107,84.940 108.726 C 84.292 109.346,83.472 109.964,83.118 110.099 C 82.317 110.407,76.033 115.138,75.153 116.095 C 74.797 116.483,74.329 116.800,74.112 116.800 C 73.896 116.800,73.154 117.340,72.463 118.000 C 71.772 118.660,71.052 119.200,70.863 119.200 C 70.674 119.200,69.954 119.740,69.263 120.400 C 68.572 121.060,67.852 121.600,67.663 121.600 C 67.474 121.600,66.754 122.140,66.063 122.800 C 65.372 123.460,64.652 124.000,64.463 124.000 C 64.274 124.000,63.554 124.540,62.863 125.200 C 62.172 125.860,61.508 126.400,61.387 126.400 C 61.265 126.400,60.949 126.583,60.683 126.807 C 58.851 128.353,58.239 128.800,57.957 128.800 C 57.781 128.800,57.186 129.250,56.636 129.800 C 56.086 130.350,55.475 130.800,55.278 130.800 C 55.080 130.800,54.354 131.340,53.663 132.000 C 52.972 132.660,52.252 133.200,52.063 133.200 C 51.874 133.200,51.154 133.740,50.463 134.400 C 49.772 135.060,49.052 135.600,48.863 135.600 C 48.674 135.600,47.954 136.140,47.263 136.800 C 46.572 137.460,45.826 138.000,45.604 138.000 C 45.382 138.000,45.200 138.180,45.200 138.400 C 45.200 138.620,44.942 138.800,44.627 138.800 C 44.312 138.800,43.940 139.160,43.800 139.600 C 43.660 140.040,43.270 140.400,42.934 140.400 C 42.597 140.400,41.817 140.940,41.200 141.600 C 40.583 142.260,39.868 142.800,39.611 142.800 C 39.353 142.800,38.892 143.025,38.585 143.300 C 37.318 144.437,36.817 144.800,36.517 144.802 C 36.343 144.803,35.625 145.343,34.922 146.002 C 34.219 146.661,33.480 147.200,33.281 147.200 C 33.082 147.200,32.354 147.740,31.663 148.400 C 30.972 149.060,30.271 149.601,30.104 149.602 C 29.937 149.603,29.225 150.143,28.522 150.802 C 27.819 151.461,27.126 152.000,26.982 152.000 C 26.839 152.000,26.217 152.540,25.600 153.200 C 24.983 153.860,24.273 154.400,24.021 154.400 C 23.770 154.400,23.114 154.850,22.564 155.400 C 22.014 155.950,21.400 156.400,21.200 156.400 C 21.000 156.400,20.386 156.850,19.836 157.400 C 19.286 157.950,18.693 158.402,18.518 158.405 C 18.343 158.408,17.750 158.770,17.200 159.209 C 16.650 159.648,14.805 161.016,13.100 162.249 C 11.395 163.483,10.000 164.639,10.000 164.819 C 10.000 164.999,9.623 165.266,9.162 165.412 C 6.697 166.194,5.200 168.703,5.200 172.048 C 5.200 173.883,5.367 175.200,5.600 175.200 C 5.820 175.200,6.000 175.488,6.000 175.840 C 6.000 176.191,6.540 176.983,7.200 177.600 C 7.860 178.217,8.400 178.943,8.400 179.214 C 8.400 179.484,8.733 179.997,9.141 180.353 C 9.548 180.709,10.163 181.540,10.507 182.200 C 10.851 182.860,11.507 183.797,11.966 184.283 C 12.425 184.769,12.800 185.327,12.800 185.524 C 12.800 185.721,13.340 186.446,14.000 187.137 C 14.660 187.828,15.201 188.529,15.202 188.696 C 15.203 188.863,15.743 189.575,16.402 190.278 C 17.061 190.981,17.600 191.674,17.600 191.818 C 17.600 191.961,18.140 192.583,18.800 193.200 C 19.460 193.817,20.000 194.527,20.000 194.779 C 20.000 195.452,21.864 197.200,22.582 197.200 C 22.922 197.200,23.200 197.380,23.200 197.600 C 23.200 197.831,24.467 198.000,26.200 198.000 C 27.933 198.000,29.200 197.831,29.200 197.600 C 29.200 197.380,29.488 197.200,29.840 197.200 C 30.191 197.200,30.983 196.660,31.600 196.000 C 32.217 195.340,32.937 194.800,33.200 194.800 C 33.463 194.800,34.183 194.260,34.800 193.600 C 35.417 192.940,36.194 192.400,36.527 192.400 C 36.861 192.400,37.193 192.248,37.267 192.062 C 37.340 191.876,38.345 191.049,39.500 190.224 C 40.655 189.400,41.600 188.562,41.600 188.362 C 41.600 188.163,41.888 188.000,42.240 188.000 C 42.591 188.000,43.383 187.460,44.000 186.800 C 44.617 186.140,45.337 185.600,45.600 185.600 C 45.863 185.600,46.583 185.060,47.200 184.400 C 47.817 183.740,48.520 183.200,48.764 183.200 C 49.008 183.200,49.772 182.660,50.463 182.000 C 51.154 181.340,51.874 180.800,52.063 180.800 C 52.252 180.800,52.972 180.260,53.663 179.600 C 54.354 178.940,55.080 178.400,55.278 178.400 C 55.475 178.400,56.046 177.995,56.546 177.500 C 57.046 177.005,57.958 176.240,58.572 175.800 C 59.186 175.360,59.926 174.775,60.216 174.500 C 60.506 174.225,60.902 174.000,61.096 174.000 C 61.290 174.000,61.798 173.680,62.225 173.289 C 62.651 172.898,63.630 172.138,64.400 171.600 C 65.170 171.062,66.149 170.302,66.575 169.911 C 67.002 169.520,67.499 169.200,67.679 169.200 C 67.860 169.200,68.572 168.660,69.263 168.000 C 69.954 167.340,70.669 166.800,70.852 166.800 C 71.168 166.800,72.479 165.735,74.668 163.700 C 75.201 163.205,75.781 162.800,75.959 162.800 C 76.136 162.800,76.846 162.260,77.537 161.600 C 78.228 160.940,78.940 160.400,79.121 160.400 C 79.301 160.400,79.798 160.079,80.225 159.687 C 80.651 159.295,81.680 158.558,82.511 158.048 C 83.341 157.539,84.241 156.908,84.511 156.648 C 84.780 156.387,85.630 155.738,86.400 155.206 C 87.170 154.674,87.890 154.131,88.000 154.000 C 88.110 153.869,88.830 153.323,89.600 152.786 C 91.349 151.568,92.246 150.846,93.432 149.700 C 93.944 149.205,94.525 148.800,94.722 148.800 C 94.920 148.800,95.646 148.260,96.337 147.600 C 97.028 146.940,97.792 146.400,98.036 146.400 C 98.280 146.400,98.983 145.860,99.600 145.200 C 100.217 144.540,100.937 144.000,101.200 144.000 C 101.463 144.000,102.162 143.505,102.753 142.900 C 104.423 141.189,106.336 140.292,107.016 140.901 C 108.286 142.040,108.783 142.400,109.084 142.400 C 109.259 142.400,109.912 142.940,110.535 143.600 C 111.158 144.260,111.850 144.800,112.073 144.800 C 112.297 144.800,112.983 145.340,113.600 146.000 C 114.217 146.660,114.937 147.200,115.200 147.200 C 115.463 147.200,116.183 147.740,116.800 148.400 C 117.417 149.060,118.137 149.600,118.400 149.600 C 118.663 149.600,119.383 150.140,120.000 150.800 C 120.617 151.460,121.337 152.000,121.600 152.000 C 121.863 152.000,122.583 152.540,123.200 153.200 C 123.817 153.860,124.543 154.400,124.814 154.400 C 125.084 154.400,125.597 154.726,125.953 155.125 C 127.330 156.669,130.409 158.417,132.179 158.659 C 133.181 158.796,134.000 159.064,134.000 159.254 C 134.000 159.444,136.070 159.600,138.600 159.600 C 141.130 159.600,143.200 159.444,143.200 159.254 C 143.200 159.064,144.050 158.792,145.088 158.650 C 146.879 158.404,151.200 156.189,151.200 155.515 C 151.200 155.342,151.443 155.200,151.741 155.200 C 152.038 155.200,152.846 154.660,153.537 154.000 C 154.228 153.340,154.929 152.799,155.096 152.798 C 155.263 152.797,155.975 152.257,156.678 151.598 C 157.381 150.939,158.074 150.400,158.218 150.400 C 158.361 150.400,158.983 149.860,159.600 149.200 C 160.217 148.540,160.937 148.000,161.200 148.000 C 161.463 148.000,162.183 147.460,162.800 146.800 C 163.417 146.140,164.137 145.600,164.400 145.600 C 164.663 145.600,165.383 145.060,166.000 144.400 C 166.617 143.740,167.343 143.200,167.614 143.200 C 167.884 143.200,168.397 142.867,168.753 142.459 C 169.109 142.052,169.940 141.437,170.600 141.093 C 171.260 140.749,172.197 140.093,172.683 139.634 C 173.169 139.175,173.666 138.800,173.787 138.800 C 173.908 138.800,174.572 138.260,175.263 137.600 C 175.954 136.940,176.674 136.400,176.863 136.400 C 177.052 136.400,177.772 135.860,178.463 135.200 C 179.154 134.540,179.890 134.000,180.099 134.000 C 180.308 134.000,180.983 133.460,181.600 132.800 C 182.217 132.140,182.920 131.600,183.164 131.600 C 183.408 131.600,184.172 131.060,184.863 130.400 C 185.554 129.740,186.296 129.200,186.512 129.200 C 186.729 129.200,187.197 128.876,187.553 128.481 C 187.909 128.086,188.830 127.327,189.600 126.794 C 190.370 126.262,191.238 125.595,191.529 125.313 C 191.819 125.031,192.179 124.800,192.329 124.799 C 192.478 124.799,193.230 124.259,194.000 123.600 C 194.770 122.941,195.543 122.401,195.718 122.401 C 195.893 122.400,196.486 121.950,197.036 121.400 C 197.586 120.850,198.186 120.400,198.368 120.400 C 198.550 120.400,199.387 119.770,200.228 119.000 C 201.069 118.230,201.903 117.600,202.082 117.600 C 202.261 117.600,202.972 117.060,203.663 116.400 C 204.354 115.740,205.122 115.200,205.371 115.200 C 205.620 115.200,206.083 114.840,206.400 114.400 C 206.717 113.960,207.135 113.600,207.328 113.600 C 207.521 113.600,208.183 113.060,208.800 112.400 C 209.417 111.740,210.092 111.200,210.301 111.200 C 210.510 111.200,211.246 110.660,211.937 110.000 C 212.628 109.340,213.419 108.797,213.696 108.794 C 213.973 108.790,214.809 108.250,215.554 107.594 C 216.299 106.937,217.056 106.400,217.236 106.400 C 217.416 106.400,217.977 105.995,218.482 105.500 C 218.987 105.005,220.074 104.150,220.898 103.600 C 221.721 103.050,222.396 102.465,222.397 102.300 C 222.399 102.135,222.606 102.000,222.857 102.000 C 223.108 102.000,223.829 101.460,224.460 100.800 C 225.091 100.140,225.803 99.600,226.043 99.600 C 226.283 99.600,226.983 99.060,227.600 98.400 C 228.217 97.740,228.937 97.200,229.200 97.200 C 229.463 97.200,230.183 96.660,230.800 96.000 C 231.417 95.340,232.137 94.800,232.400 94.800 C 232.663 94.800,233.383 94.260,234.000 93.600 C 234.617 92.940,235.394 92.400,235.727 92.400 C 236.061 92.400,236.393 92.258,236.467 92.084 C 236.540 91.911,238.040 90.701,239.800 89.397 C 241.560 88.092,243.291 86.704,243.647 86.312 C 244.003 85.920,244.516 85.600,244.786 85.600 C 245.057 85.600,245.783 85.060,246.400 84.400 C 247.017 83.740,247.737 83.200,248.000 83.200 C 248.263 83.200,248.983 82.660,249.600 82.000 C 250.217 81.340,250.969 80.800,251.272 80.800 C 251.575 80.800,252.083 80.440,252.400 80.000 C 253.273 78.789,253.783 78.991,256.432 81.600 C 257.773 82.920,259.112 84.000,259.408 84.000 C 259.704 84.000,260.060 84.315,260.199 84.700 C 260.427 85.328,264.333 88.923,266.729 90.708 C 267.240 91.089,268.659 92.345,269.883 93.500 C 271.106 94.655,272.275 95.600,272.480 95.600 C 272.684 95.600,273.695 96.465,274.726 97.523 C 275.757 98.580,277.185 99.704,277.900 100.021 C 278.615 100.337,279.200 100.731,279.200 100.898 C 279.200 101.064,279.740 101.200,280.400 101.200 C 281.060 101.200,281.600 101.380,281.600 101.600 C 281.600 101.820,282.489 102.000,283.576 102.000 C 284.663 102.000,285.664 102.180,285.800 102.400 C 285.936 102.620,286.757 102.800,287.624 102.800 C 288.491 102.800,289.200 102.620,289.200 102.400 C 289.200 102.180,290.100 102.000,291.200 102.000 C 292.300 102.000,293.200 101.820,293.200 101.600 C 293.200 101.380,293.740 101.200,294.400 101.200 C 295.060 101.200,295.600 101.020,295.600 100.800 C 295.600 100.580,295.960 100.400,296.400 100.400 C 296.840 100.400,297.200 100.250,297.200 100.068 C 297.200 99.885,297.695 99.481,298.300 99.170 C 298.905 98.860,299.691 98.289,300.047 97.903 C 300.403 97.516,300.871 97.200,301.088 97.200 C 301.304 97.200,302.046 96.660,302.737 96.000 C 303.428 95.340,304.174 94.800,304.396 94.800 C 304.618 94.800,304.800 94.620,304.800 94.400 C 304.800 94.180,305.030 94.000,305.312 94.000 C 305.593 94.000,306.083 93.640,306.400 93.200 C 306.717 92.760,307.124 92.400,307.305 92.400 C 307.486 92.400,307.851 92.217,308.117 91.993 C 309.949 90.447,310.561 90.000,310.843 90.000 C 311.019 90.000,311.614 89.550,312.164 89.000 C 312.714 88.450,313.325 88.000,313.522 88.000 C 313.720 88.000,314.446 87.460,315.137 86.800 C 315.828 86.140,316.548 85.600,316.737 85.600 C 316.926 85.600,317.646 85.060,318.337 84.400 C 319.028 83.740,319.748 83.200,319.937 83.200 C 320.126 83.200,320.846 82.660,321.537 82.000 C 322.228 81.340,322.974 80.800,323.196 80.800 C 323.418 80.800,323.600 80.620,323.600 80.400 C 323.600 80.180,323.858 80.000,324.173 80.000 C 324.488 80.000,324.860 79.640,325.000 79.200 C 325.140 78.760,325.530 78.400,325.866 78.400 C 326.203 78.400,326.983 77.860,327.600 77.200 C 328.217 76.540,328.932 76.000,329.189 76.000 C 329.447 76.000,329.908 75.775,330.215 75.500 C 331.063 74.739,331.663 74.291,333.297 73.200 C 334.121 72.650,334.796 72.065,334.797 71.900 C 334.799 71.735,335.043 71.600,335.341 71.600 C 335.638 71.600,336.446 71.060,337.137 70.400 C 337.828 69.740,338.529 69.199,338.696 69.198 C 338.863 69.197,339.575 68.657,340.278 67.998 C 340.981 67.339,341.674 66.800,341.818 66.800 C 341.961 66.800,342.583 66.260,343.200 65.600 C 343.817 64.940,344.520 64.400,344.764 64.400 C 345.008 64.400,345.772 63.860,346.463 63.200 C 347.154 62.540,347.885 62.000,348.088 62.000 C 348.291 62.000,348.734 61.724,349.072 61.386 C 349.709 60.748,352.000 62.508,352.000 63.636 C 352.000 63.880,352.540 64.583,353.200 65.200 C 353.860 65.817,354.400 66.537,354.400 66.800 C 354.400 67.063,354.940 67.783,355.600 68.400 C 356.260 69.017,356.800 69.692,356.800 69.901 C 356.800 70.110,357.340 70.846,358.000 71.537 C 358.660 72.228,359.200 72.883,359.200 72.993 C 359.200 73.557,361.040 75.200,361.672 75.200 C 362.072 75.200,362.400 75.380,362.400 75.600 C 362.400 75.822,363.459 76.000,364.776 76.000 C 366.083 76.000,367.264 75.820,367.400 75.600 C 367.536 75.380,367.964 75.200,368.351 75.200 C 369.267 75.200,370.369 73.888,371.544 71.399 C 372.063 70.300,372.648 69.087,372.844 68.705 C 373.040 68.323,373.200 67.738,373.200 67.405 C 373.200 67.072,373.380 66.800,373.600 66.800 C 373.820 66.800,374.000 66.551,374.000 66.246 C 374.000 65.941,374.269 65.176,374.598 64.546 C 374.926 63.916,375.196 63.085,375.198 62.700 C 375.199 62.315,375.380 62.000,375.600 62.000 C 375.820 62.000,376.000 61.460,376.000 60.800 C 376.000 60.140,376.180 59.600,376.400 59.600 C 376.620 59.600,376.800 59.330,376.800 59.000 C 376.800 58.670,376.980 58.400,377.200 58.400 C 377.420 58.400,377.600 58.051,377.600 57.624 C 377.600 57.197,377.780 56.736,378.000 56.600 C 378.220 56.464,378.400 56.003,378.400 55.576 C 378.400 55.149,378.580 54.800,378.800 54.800 C 379.020 54.800,379.200 54.350,379.200 53.800 C 379.200 53.250,379.380 52.800,379.600 52.800 C 379.820 52.800,380.000 52.440,380.000 52.000 C 380.000 51.560,380.180 51.200,380.400 51.200 C 380.620 51.200,380.800 50.840,380.800 50.400 C 380.800 49.960,380.980 49.600,381.200 49.600 C 381.420 49.600,381.600 49.161,381.600 48.624 C 381.600 48.087,381.780 47.536,382.000 47.400 C 382.220 47.264,382.400 46.803,382.400 46.376 C 382.400 45.949,382.580 45.600,382.800 45.600 C 383.020 45.600,383.200 45.240,383.200 44.800 C 383.200 44.360,383.380 44.000,383.600 44.000 C 383.820 44.000,384.000 43.640,384.000 43.200 C 384.000 42.760,384.180 42.400,384.400 42.400 C 384.620 42.400,384.800 41.950,384.800 41.400 C 384.800 40.850,384.980 40.400,385.200 40.400 C 385.420 40.400,385.600 40.040,385.600 39.600 C 385.600 39.160,385.780 38.800,386.000 38.800 C 386.220 38.800,386.400 38.564,386.400 38.275 C 386.400 37.986,386.760 37.005,387.200 36.094 C 387.640 35.184,388.000 34.160,388.000 33.819 C 388.000 33.479,388.180 33.200,388.400 33.200 C 388.620 33.200,388.800 32.840,388.800 32.400 C 388.800 31.960,388.980 31.600,389.200 31.600 C 389.420 31.600,389.600 31.364,389.600 31.075 C 389.600 30.786,389.939 29.841,390.353 28.975 C 390.767 28.109,391.232 26.815,391.385 26.100 C 391.538 25.385,391.829 24.800,392.032 24.800 C 392.234 24.800,392.400 24.451,392.400 24.024 C 392.400 23.597,392.580 23.136,392.800 23.000 C 393.020 22.864,393.200 22.403,393.200 21.976 C 393.200 21.549,393.380 21.200,393.600 21.200 C 393.820 21.200,394.000 20.750,394.000 20.200 C 394.000 19.650,394.180 19.200,394.400 19.200 C 394.643 19.200,394.800 17.400,394.800 14.600 C 394.800 11.800,394.643 10.000,394.400 10.000 C 394.180 10.000,394.000 9.460,394.000 8.800 C 394.000 8.140,393.820 7.600,393.600 7.600 C 393.380 7.600,393.200 7.324,393.200 6.986 C 393.200 6.648,392.795 5.922,392.300 5.372 C 389.956 2.770,388.257 1.200,387.785 1.200 C 387.500 1.200,387.192 0.975,387.100 0.700 C 386.930 0.187,376.826 -0.069,370.600 0.283 M381.911 12.223 C 382.945 12.947,383.074 14.507,382.242 16.239 C 381.936 16.877,380.654 19.740,379.394 22.600 C 378.134 25.460,376.495 29.121,375.752 30.736 C 375.008 32.350,374.400 33.740,374.400 33.824 C 374.400 33.908,373.970 34.927,373.445 36.088 C 372.461 38.263,371.480 40.464,370.097 43.600 C 365.147 54.826,363.849 57.600,363.547 57.600 C 363.353 57.600,361.401 55.193,359.209 52.251 C 352.055 42.649,353.572 42.298,331.800 58.582 C 322.780 65.328,314.950 71.182,314.400 71.589 C 311.788 73.525,300.134 82.255,299.602 82.674 C 297.443 84.375,291.599 88.653,290.600 89.264 C 288.821 90.351,284.831 90.091,283.600 88.808 C 283.490 88.693,282.052 87.429,280.403 86.000 C 276.681 82.771,274.795 81.109,272.215 78.784 C 271.107 77.786,268.041 75.086,265.403 72.784 C 262.765 70.483,259.914 67.970,259.069 67.200 C 254.493 63.035,253.805 63.230,241.949 72.065 C 227.107 83.126,223.056 86.153,222.400 86.673 C 222.070 86.934,220.900 87.820,219.800 88.642 C 218.700 89.463,217.170 90.619,216.400 91.211 C 215.630 91.802,212.750 93.947,210.000 95.976 C 207.250 98.005,204.730 99.878,204.400 100.137 C 204.070 100.397,199.840 103.566,195.000 107.180 C 159.058 134.016,149.442 141.210,146.901 143.167 C 138.533 149.611,139.852 149.953,122.199 136.759 C 107.981 126.131,106.832 125.475,104.294 126.535 C 103.488 126.872,95.756 132.437,87.114 138.901 C 78.471 145.366,62.400 157.372,51.400 165.581 C 40.400 173.791,30.605 181.114,29.634 181.854 C 28.663 182.594,27.663 183.200,27.412 183.200 C 26.831 183.200,20.000 174.239,20.000 173.477 C 20.000 173.009,48.449 151.511,95.166 116.675 C 107.327 107.607,103.780 106.740,127.622 124.607 C 137.967 132.361,139.346 132.809,143.284 129.699 C 145.051 128.304,143.543 129.435,167.200 111.764 C 205.663 83.033,213.415 77.237,216.600 74.826 C 235.404 60.591,251.288 48.965,252.538 48.523 C 254.897 47.687,257.524 48.429,259.844 50.587 C 260.089 50.814,260.899 51.530,261.644 52.179 C 262.390 52.827,264.536 54.717,266.413 56.379 C 268.290 58.040,271.169 60.570,272.811 62.000 C 274.453 63.430,276.787 65.508,277.998 66.618 C 288.128 75.900,286.870 75.966,301.000 65.413 C 344.962 32.578,341.474 35.334,341.993 33.029 C 342.533 30.635,340.008 25.256,337.191 22.800 C 337.065 22.690,336.526 21.970,335.994 21.200 C 335.462 20.430,334.787 19.554,334.495 19.254 C 333.223 17.945,334.278 17.522,340.600 16.806 C 342.800 16.557,345.770 16.190,347.200 15.991 C 351.177 15.435,355.448 14.869,359.200 14.400 C 363.332 13.883,367.719 13.298,371.200 12.798 C 380.617 11.447,380.790 11.438,381.911 12.223 M302.000 116.400 C 302.000 116.620,301.548 116.800,300.995 116.800 C 300.442 116.800,299.677 116.968,299.295 117.174 C 298.913 117.379,298.015 117.783,297.300 118.071 C 296.585 118.360,296.000 118.731,296.000 118.898 C 296.000 119.064,295.730 119.200,295.400 119.200 C 295.070 119.200,294.800 119.380,294.800 119.600 C 294.800 119.820,294.606 120.000,294.369 120.000 C 293.745 120.000,288.800 125.191,288.800 125.846 C 288.800 126.151,288.620 126.400,288.400 126.400 C 288.180 126.400,288.000 126.670,288.000 127.000 C 288.000 127.330,287.820 127.600,287.600 127.600 C 287.380 127.600,287.200 127.960,287.200 128.400 C 287.200 128.840,287.020 129.200,286.800 129.200 C 286.580 129.200,286.400 129.549,286.400 129.976 C 286.400 130.403,286.220 130.864,286.000 131.000 C 285.780 131.136,285.600 131.856,285.600 132.600 C 285.600 133.344,285.420 134.064,285.200 134.200 C 284.935 134.364,284.800 176.204,284.800 258.424 C 284.800 340.808,284.934 382.400,285.200 382.400 C 285.420 382.400,285.600 383.120,285.600 384.000 C 285.600 384.880,285.780 385.600,286.000 385.600 C 286.220 385.600,286.400 385.960,286.400 386.400 C 286.400 386.840,286.580 387.200,286.800 387.200 C 287.020 387.200,287.200 387.434,287.200 387.720 C 287.200 388.456,288.141 390.393,288.500 390.397 C 288.665 390.399,288.800 390.583,288.800 390.807 C 288.800 391.339,293.861 396.400,294.393 396.400 C 294.617 396.400,294.800 396.580,294.800 396.800 C 294.800 397.020,295.070 397.200,295.400 397.200 C 295.730 397.200,296.001 397.335,296.003 397.500 C 296.007 397.851,297.937 398.800,298.646 398.800 C 298.914 398.800,299.208 399.025,299.300 399.300 C 299.432 399.695,307.072 399.800,335.713 399.800 C 364.177 399.800,372.067 399.693,372.460 399.300 C 372.735 399.025,373.284 398.800,373.680 398.800 C 374.076 398.800,374.400 398.620,374.400 398.400 C 374.400 398.180,374.636 398.000,374.925 398.000 C 375.213 398.000,375.836 397.640,376.308 397.200 C 376.780 396.760,377.330 396.400,377.530 396.400 C 378.056 396.400,382.400 392.149,382.400 391.635 C 382.400 391.396,382.580 391.200,382.800 391.200 C 383.020 391.200,383.200 390.930,383.200 390.600 C 383.200 390.270,383.380 390.000,383.600 390.000 C 383.820 390.000,384.000 389.730,384.000 389.400 C 384.000 389.070,384.180 388.800,384.400 388.800 C 384.620 388.800,384.800 388.440,384.800 388.000 C 384.800 387.560,384.980 387.200,385.200 387.200 C 385.420 387.200,385.600 386.660,385.600 386.000 C 385.600 385.340,385.780 384.800,386.000 384.800 C 386.220 384.800,386.400 384.091,386.400 383.224 C 386.400 382.357,386.580 381.536,386.800 381.400 C 387.443 381.003,387.344 211.068,386.700 209.228 C 386.122 207.578,384.714 206.000,383.818 206.000 C 383.478 206.000,383.200 205.820,383.200 205.600 C 383.200 205.004,381.451 205.117,380.146 205.798 C 379.516 206.126,378.720 206.396,378.378 206.398 C 378.037 206.399,377.137 207.040,376.378 207.822 L 375.000 209.244 374.800 294.922 L 374.600 380.600 373.538 382.400 C 371.721 385.481,370.101 386.889,367.218 387.894 C 364.990 388.670,306.206 388.614,304.349 387.833 C 301.998 386.845,299.691 384.897,298.527 382.917 L 297.400 381.000 297.400 258.200 L 297.400 135.400 298.273 133.936 C 299.525 131.837,300.410 130.873,302.000 129.877 C 305.020 127.986,304.534 128.012,336.089 128.006 L 365.977 128.000 368.089 128.950 C 370.533 130.050,372.190 131.583,373.600 134.050 L 374.600 135.800 374.800 163.000 C 374.987 188.450,375.047 190.269,375.728 191.272 C 376.687 192.685,378.129 193.600,379.398 193.600 C 379.963 193.600,380.529 193.870,380.655 194.200 C 380.910 194.864,382.400 195.035,382.400 194.400 C 382.400 194.180,382.760 194.000,383.200 194.000 C 383.640 194.000,384.000 193.820,384.000 193.600 C 384.000 193.380,384.360 193.200,384.800 193.200 C 385.333 193.200,385.600 192.933,385.600 192.400 C 385.600 191.960,385.735 191.599,385.900 191.597 C 387.180 191.584,388.067 135.783,386.800 135.000 C 386.580 134.864,386.400 134.043,386.400 133.176 C 386.400 132.309,386.220 131.600,386.000 131.600 C 385.780 131.600,385.600 131.257,385.600 130.838 C 385.600 129.880,384.030 126.812,383.100 125.953 C 382.715 125.597,382.400 125.091,382.400 124.827 C 382.400 124.309,378.547 120.400,378.036 120.400 C 377.864 120.400,377.201 119.950,376.562 119.400 C 375.923 118.851,375.175 118.401,374.900 118.400 C 374.625 118.400,374.400 118.220,374.400 118.000 C 374.400 117.780,373.950 117.600,373.400 117.600 C 372.850 117.600,372.400 117.420,372.400 117.200 C 372.400 116.980,371.860 116.800,371.200 116.800 C 370.540 116.800,370.000 116.620,370.000 116.400 C 370.000 116.136,358.400 116.000,336.000 116.000 C 313.600 116.000,302.000 116.136,302.000 116.400 M181.400 173.600 C 181.264 173.820,180.623 174.000,179.976 174.000 C 179.329 174.000,178.800 174.180,178.800 174.400 C 178.800 174.620,178.440 174.800,178.000 174.800 C 177.560 174.800,177.200 174.980,177.200 175.200 C 177.200 175.420,176.840 175.600,176.400 175.600 C 175.960 175.600,175.600 175.780,175.600 176.000 C 175.600 176.220,175.322 176.400,174.983 176.400 C 174.644 176.400,174.149 176.582,173.883 176.804 C 173.617 177.027,172.770 177.744,172.000 178.398 C 171.230 179.052,170.465 179.590,170.300 179.594 C 170.135 179.597,170.000 179.798,170.000 180.040 C 170.000 180.281,169.460 180.983,168.800 181.600 C 168.140 182.217,167.600 183.009,167.600 183.360 C 167.600 183.712,167.440 184.000,167.243 184.000 C 166.906 184.000,166.097 185.680,164.934 188.800 C 164.647 189.570,164.409 190.839,164.406 191.620 C 164.403 192.401,164.219 193.221,163.998 193.442 C 163.537 193.903,163.699 379.031,164.164 382.000 C 164.319 382.990,164.639 384.250,164.876 384.800 C 165.113 385.350,165.463 386.205,165.654 386.700 C 166.425 388.704,167.053 389.784,168.100 390.906 C 168.705 391.554,169.200 392.252,169.200 392.456 C 169.200 393.023,171.903 395.600,172.498 395.600 C 172.787 395.600,173.283 395.960,173.600 396.400 C 173.917 396.840,174.414 397.200,174.705 397.200 C 174.996 397.200,175.620 397.560,176.092 398.000 C 176.564 398.440,177.241 398.800,177.595 398.800 C 177.950 398.800,178.465 399.025,178.740 399.300 C 179.133 399.693,187.023 399.800,215.487 399.800 C 244.128 399.800,251.768 399.695,251.900 399.300 C 251.992 399.025,252.412 398.800,252.833 398.800 C 253.255 398.800,253.600 398.620,253.600 398.400 C 253.600 398.180,253.960 398.000,254.400 398.000 C 254.840 398.000,255.200 397.820,255.200 397.600 C 255.200 397.380,255.378 397.200,255.595 397.200 C 256.010 397.200,257.381 396.167,258.149 395.277 C 258.397 394.989,259.365 393.959,260.300 392.987 C 261.235 392.016,262.000 391.036,262.000 390.811 C 262.000 390.585,262.147 390.400,262.326 390.400 C 262.792 390.400,264.400 387.269,264.400 386.362 C 264.400 385.943,264.580 385.600,264.800 385.600 C 265.020 385.600,265.200 385.060,265.200 384.400 C 265.200 383.740,265.380 383.200,265.600 383.200 C 266.155 383.200,266.155 190.943,265.600 190.600 C 265.380 190.464,265.200 189.823,265.200 189.176 C 265.200 188.529,265.020 188.000,264.800 188.000 C 264.580 188.000,264.400 187.657,264.400 187.238 C 264.400 186.331,262.792 183.200,262.326 183.200 C 262.147 183.200,262.000 182.950,262.000 182.646 C 262.000 181.968,257.470 177.200,256.827 177.200 C 256.574 177.200,255.980 176.840,255.508 176.400 C 255.036 175.960,254.413 175.600,254.125 175.600 C 253.836 175.600,253.600 175.420,253.600 175.200 C 253.600 174.980,253.060 174.800,252.400 174.800 C 251.740 174.800,251.200 174.620,251.200 174.400 C 251.200 174.180,250.660 174.000,250.000 174.000 C 249.340 174.000,248.800 173.820,248.800 173.600 C 248.800 173.337,237.341 173.200,215.224 173.200 C 193.271 173.200,181.562 173.338,181.400 173.600 M247.600 186.336 C 250.965 188.085,252.569 190.124,253.474 193.800 C 254.154 196.565,254.228 376.488,253.550 379.680 C 252.847 382.987,250.589 385.891,247.600 387.332 C 245.354 388.415,187.134 388.724,183.653 387.672 C 181.316 386.965,178.239 384.046,177.319 381.663 C 176.344 379.136,176.183 194.983,177.153 192.234 C 177.818 190.350,180.446 187.398,182.160 186.611 C 184.960 185.325,186.550 185.265,216.000 185.332 L 245.800 185.400 247.600 186.336 M61.200 230.400 C 60.870 230.613,60.105 230.791,59.500 230.794 C 58.895 230.797,58.400 230.980,58.400 231.200 C 58.400 231.420,58.135 231.600,57.811 231.600 C 57.006 231.600,53.600 233.282,53.600 233.680 C 53.600 233.856,53.346 234.000,53.035 234.000 C 52.410 234.000,47.600 238.574,47.600 239.169 C 47.600 239.375,47.339 239.803,47.021 240.122 C 46.702 240.441,45.847 241.848,45.121 243.251 L 43.800 245.800 43.679 288.200 C 43.545 334.868,43.424 332.430,45.937 333.599 C 46.522 333.871,47.332 334.265,47.738 334.474 C 48.268 334.747,48.672 334.678,49.170 334.227 C 49.551 333.882,50.209 333.599,50.631 333.599 C 51.741 333.596,53.840 332.216,54.678 330.937 C 55.358 329.899,55.412 327.530,55.600 290.018 C 55.819 246.388,55.661 249.082,58.182 246.092 C 61.438 242.231,63.006 242.081,100.680 242.029 C 127.684 241.992,128.885 242.249,132.093 248.760 L 133.000 250.600 133.107 313.971 C 133.178 355.497,133.075 378.096,132.809 379.532 C 132.076 383.502,129.464 386.531,125.600 387.894 C 123.682 388.571,65.432 388.621,63.185 387.948 C 60.830 387.243,57.973 384.847,56.823 382.612 L 55.800 380.624 55.600 365.212 C 55.456 354.088,55.263 349.562,54.909 348.943 C 54.242 347.780,52.078 346.000,51.330 346.000 C 50.995 346.000,50.099 345.705,49.339 345.344 C 47.727 344.579,46.753 344.927,44.739 346.987 L 43.557 348.196 43.678 366.598 C 43.763 379.437,43.938 385.242,44.256 385.800 C 44.507 386.240,45.134 387.481,45.649 388.557 C 46.683 390.719,52.777 397.200,53.775 397.200 C 54.119 397.200,54.400 397.380,54.400 397.600 C 54.400 397.820,54.760 398.000,55.200 398.000 C 55.640 398.000,56.000 398.180,56.000 398.400 C 56.000 398.620,56.345 398.800,56.767 398.800 C 57.188 398.800,57.608 399.025,57.700 399.300 C 57.832 399.695,65.489 399.800,94.200 399.800 C 122.911 399.800,130.568 399.695,130.700 399.300 C 130.792 399.025,131.212 398.800,131.633 398.800 C 132.055 398.800,132.400 398.620,132.400 398.400 C 132.400 398.180,132.760 398.000,133.200 398.000 C 133.640 398.000,134.000 397.820,134.000 397.600 C 134.000 397.380,134.267 397.200,134.593 397.200 C 135.802 397.200,141.600 391.444,141.600 390.244 C 141.600 389.890,141.735 389.599,141.900 389.597 C 142.259 389.593,143.200 387.656,143.200 386.920 C 143.200 386.634,143.380 386.400,143.600 386.400 C 143.820 386.400,144.000 385.860,144.000 385.200 C 144.000 384.540,144.180 384.000,144.400 384.000 C 144.622 384.000,144.800 382.941,144.800 381.624 C 144.800 380.317,144.980 379.136,145.200 379.000 C 145.464 378.837,145.600 357.196,145.600 315.376 C 145.600 273.392,145.465 252.000,145.200 252.000 C 144.975 252.000,144.800 250.875,144.800 249.424 C 144.800 248.007,144.620 246.736,144.400 246.600 C 144.180 246.464,144.000 246.039,144.000 245.656 C 144.000 244.781,143.101 242.807,142.700 242.803 C 142.535 242.801,142.400 242.440,142.400 242.000 C 142.400 241.560,142.220 241.200,142.000 241.200 C 141.780 241.200,141.600 240.869,141.600 240.465 C 141.600 239.552,136.306 234.000,135.436 234.000 C 135.086 234.000,134.800 233.853,134.800 233.674 C 134.800 233.208,131.669 231.600,130.762 231.600 C 130.343 231.600,130.000 231.420,130.000 231.200 C 130.000 230.980,129.471 230.800,128.824 230.800 C 128.177 230.800,127.536 230.620,127.400 230.400 C 127.067 229.861,62.035 229.861,61.200 230.400 " stroke="none" fill="#040404" fill-rule="evenodd"></path><path id="path4" d="M376.400 12.068 C 374.970 12.265,372.630 12.593,371.200 12.798 C 367.719 13.298,363.332 13.883,359.200 14.400 C 355.448 14.869,351.177 15.435,347.200 15.991 C 345.770 16.190,342.800 16.557,340.600 16.806 C 334.278 17.522,333.223 17.945,334.495 19.254 C 334.787 19.554,335.462 20.430,335.994 21.200 C 336.526 21.970,337.065 22.690,337.191 22.800 C 340.008 25.256,342.533 30.635,341.993 33.029 C 341.474 35.334,344.962 32.578,301.000 65.413 C 286.870 75.966,288.128 75.900,277.998 66.618 C 276.787 65.508,274.453 63.430,272.811 62.000 C 271.169 60.570,268.290 58.040,266.413 56.379 C 264.536 54.717,262.390 52.827,261.644 52.179 C 260.899 51.530,260.089 50.814,259.844 50.587 C 257.524 48.429,254.897 47.687,252.538 48.523 C 251.288 48.965,235.404 60.591,216.600 74.826 C 213.415 77.237,205.663 83.033,167.200 111.764 C 143.543 129.435,145.051 128.304,143.284 129.699 C 139.346 132.809,137.967 132.361,127.622 124.607 C 103.780 106.740,107.327 107.607,95.166 116.675 C 48.449 151.511,20.000 173.009,20.000 173.477 C 20.000 174.239,26.831 183.200,27.412 183.200 C 27.663 183.200,28.663 182.594,29.634 181.854 C 30.605 181.114,40.400 173.791,51.400 165.581 C 62.400 157.372,78.471 145.366,87.114 138.901 C 95.756 132.437,103.488 126.872,104.294 126.535 C 106.832 125.475,107.981 126.131,122.199 136.759 C 139.852 149.953,138.533 149.611,146.901 143.167 C 149.442 141.210,159.058 134.016,195.000 107.180 C 199.840 103.566,204.070 100.397,204.400 100.137 C 204.730 99.878,207.250 98.005,210.000 95.976 C 212.750 93.947,215.630 91.802,216.400 91.211 C 217.170 90.619,218.700 89.463,219.800 88.642 C 220.900 87.820,222.070 86.934,222.400 86.673 C 223.056 86.153,227.107 83.126,241.949 72.065 C 253.805 63.230,254.493 63.035,259.069 67.200 C 259.914 67.970,262.765 70.483,265.403 72.784 C 268.041 75.086,271.107 77.786,272.215 78.784 C 274.795 81.109,276.681 82.771,280.403 86.000 C 282.052 87.429,283.490 88.693,283.600 88.808 C 284.831 90.091,288.821 90.351,290.600 89.264 C 291.599 88.653,297.443 84.375,299.602 82.674 C 300.134 82.255,311.788 73.525,314.400 71.589 C 314.950 71.182,322.780 65.328,331.800 58.582 C 353.572 42.298,352.055 42.649,359.209 52.251 C 361.401 55.193,363.353 57.600,363.547 57.600 C 363.849 57.600,365.147 54.826,370.097 43.600 C 371.480 40.464,372.461 38.263,373.445 36.088 C 373.970 34.927,374.400 33.908,374.400 33.824 C 374.400 33.740,375.008 32.350,375.752 30.736 C 376.495 29.121,378.134 25.460,379.394 22.600 C 380.654 19.740,381.936 16.877,382.242 16.239 C 383.074 14.507,382.945 12.947,381.911 12.223 C 380.945 11.546,380.329 11.529,376.400 12.068 M304.597 128.548 C 301.732 129.625,299.926 131.164,298.273 133.936 L 297.400 135.400 297.400 258.200 L 297.400 381.000 298.527 382.917 C 299.691 384.897,301.998 386.845,304.349 387.833 C 305.821 388.452,365.706 388.702,366.662 388.094 C 366.916 387.932,353.521 387.849,336.895 387.910 C 300.948 388.040,302.287 388.233,298.885 382.445 L 297.800 380.600 297.800 258.200 L 297.800 135.800 298.937 133.866 C 300.220 131.682,302.826 129.661,305.320 128.915 C 307.743 128.190,364.489 128.176,366.828 128.900 C 369.293 129.663,372.009 131.931,373.173 134.200 L 374.200 136.200 374.400 163.529 L 374.600 190.858 376.285 192.429 C 377.250 193.329,378.369 194.000,378.905 194.000 C 379.419 194.000,380.079 194.225,380.370 194.500 C 380.798 194.904,380.865 194.884,380.719 194.400 C 380.619 194.070,380.101 193.748,379.569 193.683 C 374.838 193.114,375.031 194.356,374.800 163.000 L 374.600 135.800 373.600 134.050 C 372.190 131.583,370.533 130.050,368.089 128.950 L 365.977 128.000 335.889 128.048 C 314.594 128.081,305.448 128.228,304.597 128.548 M192.600 185.488 C 208.891 185.748,246.312 185.776,245.686 185.528 C 245.309 185.379,231.680 185.284,215.400 185.318 C 199.120 185.352,188.860 185.429,192.600 185.488 M249.293 187.641 C 249.895 188.090,250.854 189.029,251.426 189.728 C 251.997 190.428,252.277 190.620,252.048 190.155 C 251.608 189.263,248.973 186.791,248.486 186.813 C 248.329 186.820,248.692 187.192,249.293 187.641 M178.723 189.500 C 178.018 190.321,177.490 191.200,177.701 191.200 C 177.783 191.200,178.249 190.660,178.737 190.000 C 179.701 188.696,179.692 188.372,178.723 189.500 M176.597 286.800 C 176.597 337.510,176.643 358.255,176.700 332.900 C 176.757 307.545,176.757 266.055,176.700 240.700 C 176.643 215.345,176.597 236.090,176.597 286.800 M253.797 286.800 C 253.797 337.290,253.843 357.945,253.900 332.700 C 253.957 307.455,253.957 266.145,253.900 240.900 C 253.843 215.655,253.797 236.310,253.797 286.800 M379.600 205.480 C 377.556 206.219,376.275 207.052,375.492 208.149 L 374.600 209.400 374.400 294.800 C 374.216 373.268,374.146 380.314,373.536 381.600 C 372.523 383.738,371.237 385.194,369.250 386.454 C 368.256 387.084,367.676 387.600,367.960 387.600 C 369.301 387.600,371.901 385.176,373.538 382.400 L 374.600 380.600 374.800 294.922 L 375.000 209.244 376.343 207.859 C 377.117 207.060,378.256 206.366,379.029 206.221 C 379.768 206.082,380.479 205.796,380.610 205.585 C 380.866 205.170,380.549 205.137,379.600 205.480 M70.800 242.385 C 67.170 242.503,76.856 242.528,92.324 242.440 C 126.107 242.248,125.593 242.200,129.790 245.971 C 130.704 246.793,131.044 246.982,130.590 246.415 C 128.717 244.080,127.039 243.112,123.680 242.430 C 121.501 241.988,83.974 241.956,70.800 242.385 M60.731 243.958 C 59.142 244.966,57.590 246.611,56.635 248.300 C 55.982 249.456,56.807 248.683,57.605 247.391 C 58.661 245.683,60.676 244.093,62.699 243.371 C 63.643 243.034,63.895 242.829,63.378 242.818 C 62.926 242.808,61.735 243.321,60.731 243.958 M131.200 247.953 C 131.200 248.173,131.357 248.450,131.548 248.568 C 131.740 248.686,132.011 249.356,132.151 250.056 C 132.291 250.755,132.512 251.221,132.643 251.091 C 132.942 250.791,132.067 248.089,131.571 247.782 C 131.367 247.656,131.200 247.733,131.200 247.953 M55.856 250.484 C 55.721 250.988,55.627 251.760,55.646 252.200 C 55.665 252.640,55.845 252.298,56.046 251.440 C 56.436 249.778,56.270 248.940,55.856 250.484 M132.995 315.400 C 132.995 350.160,133.042 364.321,133.100 346.869 C 133.158 329.416,133.158 300.976,133.100 283.669 C 133.042 266.361,132.995 280.640,132.995 315.400 M54.180 331.632 C 54.033 331.870,53.347 332.410,52.656 332.831 C 51.965 333.252,51.622 333.598,51.894 333.599 C 52.406 333.600,55.213 331.232,54.724 331.212 C 54.572 331.205,54.327 331.395,54.180 331.632 M49.149 334.300 C 48.672 334.909,48.678 334.940,49.200 334.543 C 49.530 334.292,50.160 333.998,50.600 333.889 C 51.360 333.703,51.357 333.690,50.549 333.646 C 50.081 333.621,49.451 333.915,49.149 334.300 M49.800 345.600 C 50.240 345.789,50.870 345.944,51.200 345.944 C 51.578 345.944,51.504 345.817,51.000 345.600 C 50.560 345.411,49.930 345.256,49.600 345.256 C 49.222 345.256,49.296 345.383,49.800 345.600 M53.222 347.080 C 53.928 347.674,54.745 348.709,55.037 349.380 C 55.330 350.051,55.576 350.309,55.584 349.954 C 55.609 348.935,53.180 346.048,52.269 346.013 C 52.087 346.006,52.516 346.486,53.222 347.080 M55.628 378.833 C 55.644 379.365,55.819 380.160,56.019 380.600 C 56.271 381.158,56.307 380.915,56.138 379.800 C 55.855 377.943,55.587 377.436,55.628 378.833 M132.194 380.600 C 132.027 381.260,131.709 382.029,131.488 382.310 C 131.267 382.590,131.199 382.933,131.338 383.071 C 131.670 383.403,132.892 380.460,132.670 379.863 C 132.576 379.608,132.362 379.940,132.194 380.600 M56.401 381.840 C 56.400 382.401,58.577 385.422,59.274 385.825 C 59.563 385.992,59.414 385.695,58.942 385.165 C 58.470 384.634,57.706 383.570,57.243 382.800 C 56.781 382.030,56.402 381.598,56.401 381.840 M129.977 384.625 C 129.447 385.189,128.416 386.019,127.686 386.471 C 126.955 386.922,126.441 387.374,126.542 387.476 C 126.854 387.788,129.923 385.577,130.589 384.560 C 131.403 383.318,131.183 383.341,129.977 384.625 M249.906 385.411 C 249.084 386.175,248.554 386.800,248.727 386.800 C 248.901 386.800,249.654 386.170,250.400 385.400 C 252.141 383.603,251.843 383.610,249.906 385.411 M63.515 388.072 C 64.447 388.442,124.481 388.463,125.062 388.094 C 125.316 387.932,111.417 387.800,94.176 387.800 C 76.936 387.800,63.138 387.922,63.515 388.072 M200.700 388.300 C 208.895 388.360,222.305 388.360,230.500 388.300 C 238.695 388.239,231.990 388.190,215.600 388.190 C 199.210 388.190,192.505 388.239,200.700 388.300 " stroke="none" fill="#558c60" fill-rule="evenodd"></path></g></svg>