<svg xmlns="http://www.w3.org/2000/svg" viewBox="0 0 24 24" fill="#1d7e9d"><path d="M12 2c-5.52 0-10 4.48-10 10s4.48 10 10 10 10-4.48 10-10-4.48-10-10-10zM4 12c0-4.41 3.59-8 8-8 1.1 0 2.15.22 3.12.62-.23.1-.44.22-.64.34-.6.36-1.15.78-1.65 1.26-.92-1.33-2.45-2.22-4.18-2.22-2.81 0-5.09 2.28-5.09 5.09 0 2.29 1.52 4.22 3.61 4.87v1.78C5.02 14.92 4 13.54 4 12zm2.64 5.5c-.18-.65-.29-1.32-.29-2 0-.68.11-1.32.28-1.93.65.37 1.4.56 2.14.56.45 0 .89-.06 1.31-.17.05.52.25 1 .58 1.38-.28.29-.58.56-.91.8-.42.31-.85.57-1.31.78-.46-.31-.89-.71-1.26-1.17-.21-.23-.39-.49-.54-.75zm7.36.82v-1.21c.96-.4 1.78-1.14 2.28-2.11.25.63.39 1.31.39 2 0 .69-.1 1.36-.26 2-.77-.33-1.56-.54-2.41-.68zm3.05-.12c.4-.8.63-1.69.63-2.61 0-1.06-.27-2.18-.74-3.09l-.13-.26.13-.26c.47-.92.74-2.03.74-3.09 0-3.93-3.19-7.13-7.13-7.13-3.02 0-5.58 1.89-6.65 4.54l-.15.38.15.39c.14.36.32.7.53 1.01.71 1.08 1.77 1.85 2.98 2.15v-1.37c-.86-.24-1.59-.81-2.05-1.57-.05-.08-.09-.17-.13-.26 1.04-1.95 3.09-3.27 5.46-3.27 3.4 0 6.13 2.73 6.13 6.13 0 .78-.15 1.55-.41 2.26-.19-.11-.4-.21-.61-.29.14-.63.21-1.29.21-1.97 0-4.96-4.04-9-9-9s-9 4.04-9 9c0 4.17 2.84 7.67 6.69 8.69l.17.05.17-.05c.18-.05.35-.1.52-.17.82-.32 1.57-.82 2.21-1.47.1.07.19.12.3.17.58.26 1.21.39 1.85.39.61 0 1.21-.12 1.78-.34.04-.01.08-.03.12-.05.82.6 1.72 1.08 2.67 1.43z"/><path d="M9.32 7.59c1.69 0 3.09 1.31 3.16 2.98h1.33c-.04-1.01-.39-1.94-.96-2.67 1.03-.22 2.13-.41 3.09-.28 1.3.18 2.32 1.2 2.5 2.5.18 1.31-.41 2.46-1.42 3.06.47.96.73 2.03.73 3.14 0 1.95-.75 3.77-2.09 5.15l-.34-.27c-.8-.62-1.05-1.34-1.11-1.97h-1.3c.05.92.43 1.82 1.05 2.54-1.17.43-2.41.66-3.7.66-1.4 0-2.73-.29-3.94-.81l.51-.89c.19-.34.47-.6.8-.74.06-.03.13-.05.19-.07-.3-.31-.54-.69-.69-1.09-.04-.12-.08-.25-.11-.38h-1.31c.11.43.27.84.48 1.23-.67-.6-1.22-1.33-1.64-2.15-.86-1.73-1.03-3.7-.46-5.53.37-1.18 1.13-2.2 2.19-2.86 1.01-.62 2.19-.91 3.36-.86.43.02.86.07 1.28.16z"/></svg> 