<svg id="svg" version="1.1" xmlns="http://www.w3.org/2000/svg" xmlns:xlink="http://www.w3.org/1999/xlink" width="400" height="400" viewBox="0, 0, 400,400"><g id="svgg"><path id="path0" d="M234.800 53.035 C 227.956 54.422,225.285 55.311,220.200 57.894 C 217.707 59.160,213.933 61.706,212.038 63.399 C 210.272 64.977,209.429 65.417,207.500 65.765 L 206.000 66.036 206.000 196.570 L 206.000 327.103 207.300 327.585 C 210.484 328.764,211.287 329.302,212.506 331.073 C 216.104 336.302,221.944 340.534,229.200 343.172 C 229.970 343.452,230.960 343.834,231.400 344.022 C 232.498 344.489,237.370 345.835,239.800 346.341 C 245.176 347.461,246.395 347.600,250.825 347.600 C 266.985 347.600,280.635 336.848,286.021 319.876 C 287.086 316.518,287.187 316.604,283.105 317.369 C 267.060 320.376,246.533 308.613,251.400 299.201 C 253.513 295.114,258.900 294.621,262.747 298.162 C 272.523 307.160,286.061 306.117,293.393 295.800 C 298.711 288.317,298.103 276.955,292.056 270.808 C 286.864 265.531,293.186 256.798,299.860 260.029 C 303.099 261.597,307.861 269.068,309.658 275.400 C 312.082 283.941,309.686 298.037,304.889 303.450 C 302.400 306.259,301.599 307.624,301.587 309.077 C 301.576 310.461,300.845 315.921,300.165 319.700 C 299.847 321.471,300.413 321.612,303.755 320.598 C 313.252 317.717,322.743 308.209,325.668 298.646 C 327.215 293.589,327.336 292.764,327.415 286.800 C 327.637 269.871,321.424 254.000,314.574 254.000 C 308.036 254.000,304.558 246.669,308.992 242.235 C 314.319 236.908,327.029 242.308,332.980 252.428 C 335.554 256.804,336.680 259.511,338.934 266.735 L 339.475 268.470 340.886 266.335 C 346.443 257.924,349.019 245.639,347.179 236.331 C 346.133 231.044,345.890 230.069,345.103 228.000 C 340.782 216.639,332.144 207.924,321.800 204.491 C 316.297 202.665,316.292 202.666,314.667 206.411 C 310.050 217.052,300.609 223.882,290.400 223.967 C 286.070 224.004,283.400 221.423,283.400 217.200 C 283.400 212.864,285.276 211.056,290.534 210.328 C 297.441 209.371,302.198 204.199,303.619 196.100 C 305.290 186.582,298.440 176.000,290.609 176.000 C 284.679 176.000,281.139 169.502,284.598 164.967 C 289.105 159.059,303.607 163.551,310.729 173.062 C 313.890 177.282,315.463 180.755,316.755 186.370 L 317.438 189.341 320.081 189.875 C 321.534 190.169,324.315 190.959,326.262 191.632 C 331.447 193.425,331.193 193.492,332.397 190.000 C 335.813 180.085,336.791 167.387,334.816 158.600 C 333.844 154.276,333.435 152.782,332.518 150.200 C 331.971 148.660,331.419 147.040,331.292 146.600 C 329.503 140.428,320.573 128.466,314.060 123.519 C 312.817 122.575,311.710 121.704,311.600 121.583 C 310.782 120.688,302.981 116.625,300.081 115.583 C 297.158 114.534,297.428 114.360,295.100 118.800 C 290.626 127.334,287.648 129.875,283.422 128.761 C 277.906 127.307,276.811 122.141,280.766 116.222 C 283.441 112.219,285.091 108.554,286.043 104.506 C 286.496 102.578,287.031 100.447,287.233 99.772 C 287.837 97.749,287.650 88.106,286.955 85.400 C 286.615 84.080,286.238 82.584,286.117 82.076 C 285.755 80.551,284.435 80.058,279.396 79.563 C 265.044 78.155,255.680 80.880,252.598 87.361 C 248.919 95.100,239.359 93.872,239.420 85.669 C 239.500 74.817,253.772 65.686,270.800 65.591 L 275.000 65.568 273.011 63.739 C 265.040 56.406,254.241 52.346,243.000 52.454 C 239.920 52.484,236.230 52.745,234.800 53.035 M174.000 57.951 C 174.000 64.269,172.944 65.771,166.756 68.261 C 164.910 69.004,162.860 69.859,162.200 70.161 C 152.221 74.730,150.837 74.655,145.244 69.246 C 143.399 67.461,141.687 66.000,141.440 66.000 C 140.913 66.000,126.400 80.440,126.400 80.965 C 126.400 81.161,127.988 82.963,129.928 84.968 C 134.666 89.866,135.041 91.538,132.626 97.000 C 132.237 97.880,131.775 98.960,131.600 99.400 C 131.425 99.840,131.007 100.830,130.672 101.600 C 130.337 102.370,129.679 103.975,129.210 105.168 C 126.265 112.660,125.571 113.200,118.883 113.200 C 111.760 113.200,112.400 112.073,112.400 124.614 L 112.400 135.200 117.140 135.200 C 125.490 135.200,126.036 135.642,129.999 145.600 C 130.919 147.910,132.103 150.746,132.631 151.902 C 135.011 157.112,134.584 159.019,129.973 163.785 C 128.008 165.816,126.400 167.643,126.400 167.843 C 126.400 168.345,140.909 182.800,141.412 182.800 C 141.634 182.800,143.073 181.532,144.608 179.983 C 149.920 174.624,151.539 174.239,157.834 176.837 C 164.489 179.584,168.133 181.100,169.600 181.732 C 172.823 183.119,174.000 185.554,174.000 190.836 C 174.000 192.770,174.161 194.452,174.358 194.574 C 174.745 194.813,183.228 193.032,184.700 192.402 L 185.600 192.017 185.600 175.023 C 185.600 155.556,186.048 157.474,181.400 157.060 C 170.026 156.047,160.212 148.992,155.008 138.088 C 154.454 136.927,154.000 135.748,154.000 135.468 C 154.000 135.189,153.849 134.789,153.664 134.580 C 151.761 132.425,151.761 116.375,153.664 114.220 C 153.849 114.011,154.000 113.604,154.000 113.316 C 154.000 111.390,158.238 104.712,161.676 101.220 C 167.090 95.720,175.984 91.600,182.443 91.600 C 185.890 91.600,185.600 93.235,185.600 73.790 L 185.600 56.466 181.700 55.606 C 179.555 55.133,177.278 54.579,176.640 54.373 C 174.045 53.538,174.000 53.599,174.000 57.951 M238.123 112.812 C 272.032 117.670,285.980 157.349,262.214 181.347 C 251.617 192.047,232.694 196.992,227.932 190.305 C 224.663 185.714,228.733 179.625,235.096 179.586 C 243.868 179.532,253.159 173.586,257.318 165.365 C 266.048 148.109,255.319 128.679,235.774 126.351 C 229.146 125.561,227.050 123.883,227.050 119.369 C 227.050 113.948,230.752 111.756,238.123 112.812 M75.600 193.451 C 66.068 195.312,62.163 208.649,69.007 215.966 C 75.683 223.103,87.500 221.183,91.538 212.304 C 92.475 210.243,92.820 202.707,92.000 202.200 C 91.780 202.064,91.600 201.610,91.600 201.191 C 91.600 200.124,87.248 195.588,85.149 194.467 C 83.395 193.531,78.085 192.966,75.600 193.451 M82.200 194.400 C 82.336 194.620,82.797 194.800,83.224 194.800 C 83.651 194.800,84.000 194.980,84.000 195.200 C 84.000 195.420,84.345 195.600,84.767 195.600 C 85.188 195.600,85.593 195.735,85.667 195.900 C 85.740 196.065,86.475 196.704,87.300 197.320 C 88.125 197.937,88.800 198.662,88.800 198.932 C 88.800 199.202,89.160 199.683,89.600 200.000 C 90.040 200.317,90.400 200.897,90.400 201.288 C 90.400 201.680,90.580 202.000,90.800 202.000 C 91.020 202.000,91.200 202.540,91.200 203.200 C 91.200 203.860,91.380 204.400,91.600 204.400 C 91.822 204.400,92.000 205.467,92.000 206.800 C 92.000 208.133,91.822 209.200,91.600 209.200 C 91.380 209.200,91.200 209.740,91.200 210.400 C 91.200 211.060,91.020 211.600,90.800 211.600 C 90.580 211.600,90.400 211.870,90.400 212.200 C 90.400 212.530,90.220 212.800,90.000 212.800 C 89.780 212.800,89.600 213.035,89.600 213.322 C 89.600 214.032,87.252 216.474,85.900 217.169 C 85.295 217.481,84.800 217.885,84.800 218.068 C 84.800 218.250,84.361 218.400,83.824 218.400 C 83.287 218.400,82.736 218.580,82.600 218.800 C 82.464 219.020,80.743 219.200,78.776 219.200 C 76.659 219.200,75.200 219.037,75.200 218.800 C 75.200 218.580,74.917 218.400,74.572 218.400 C 73.589 218.400,70.539 216.132,69.312 214.489 C 68.700 213.670,68.065 212.940,67.900 212.867 C 67.735 212.793,67.600 212.399,67.600 211.990 C 67.600 211.582,67.440 211.148,67.244 211.027 C 67.049 210.906,66.787 210.221,66.663 209.504 C 66.539 208.787,66.319 207.615,66.174 206.900 C 66.001 206.053,66.065 205.600,66.355 205.600 C 66.600 205.600,66.800 204.981,66.800 204.224 C 66.800 203.467,66.980 202.736,67.200 202.600 C 67.420 202.464,67.600 202.017,67.600 201.606 C 67.600 200.072,73.483 194.800,75.195 194.800 C 75.638 194.800,76.000 194.620,76.000 194.400 C 76.000 194.169,77.259 194.000,78.976 194.000 C 80.613 194.000,82.064 194.180,82.200 194.400 M246.600 220.863 C 251.972 221.988,258.470 226.319,262.025 231.142 C 274.370 247.891,263.436 272.127,242.756 273.852 C 231.514 274.789,229.755 261.826,240.932 260.409 C 258.019 258.242,257.382 233.662,240.238 233.593 C 235.518 233.574,232.152 228.225,234.235 224.051 C 236.019 220.474,239.931 219.466,246.600 220.863 " stroke="none" fill="#fcb1a9" fill-rule="evenodd"></path><path id="path1" d="M115.200 240.000 C 115.200 240.220,114.750 240.400,114.200 240.400 C 113.650 240.400,113.200 240.580,113.200 240.800 C 113.200 241.020,112.930 241.200,112.600 241.200 C 112.270 241.200,112.000 241.380,112.000 241.600 C 112.000 241.820,111.640 242.000,111.200 242.000 C 110.760 242.000,110.400 242.180,110.400 242.400 C 110.400 242.620,110.207 242.800,109.971 242.800 C 109.736 242.800,109.273 243.070,108.943 243.400 C 108.613 243.730,107.996 244.000,107.571 244.000 C 107.147 244.000,106.800 244.135,106.800 244.301 C 106.800 244.466,105.945 245.047,104.900 245.591 C 103.855 246.135,102.910 246.677,102.800 246.796 C 102.690 246.914,101.745 247.442,100.700 247.968 C 99.655 248.495,98.800 249.077,98.800 249.263 C 98.800 249.448,98.440 249.600,98.000 249.600 C 97.560 249.600,97.200 249.780,97.200 250.000 C 97.200 250.220,96.930 250.400,96.600 250.400 C 96.270 250.400,96.000 250.580,96.000 250.800 C 96.000 251.020,95.764 251.200,95.475 251.200 C 95.187 251.200,94.564 251.560,94.092 252.000 C 93.620 252.440,92.956 252.800,92.617 252.800 C 92.278 252.800,92.000 252.980,92.000 253.200 C 92.000 253.420,91.725 253.600,91.389 253.600 C 91.054 253.600,89.974 254.405,88.989 255.389 L 87.200 257.179 87.200 260.789 C 87.200 262.930,87.363 264.400,87.600 264.400 C 87.820 264.400,88.000 264.720,88.000 265.112 C 88.000 265.503,88.360 266.083,88.800 266.400 C 89.240 266.717,89.600 267.297,89.600 267.688 C 89.600 268.080,89.780 268.400,90.000 268.400 C 90.220 268.400,90.400 268.760,90.400 269.200 C 90.400 269.640,90.580 270.000,90.800 270.000 C 91.020 270.000,91.200 270.236,91.200 270.525 C 91.200 270.813,91.560 271.436,92.000 271.908 C 93.096 273.084,92.917 275.086,91.599 276.400 C 91.489 276.510,91.129 277.140,90.799 277.800 C 89.694 280.013,89.744 280.000,82.429 280.000 C 78.673 280.000,75.600 280.158,75.600 280.351 C 75.600 280.545,75.105 280.909,74.500 281.161 C 73.453 281.597,72.400 283.161,72.400 284.280 C 72.400 284.566,72.220 284.800,72.000 284.800 C 71.740 284.800,71.600 290.400,71.600 300.800 C 71.600 311.200,71.740 316.800,72.000 316.800 C 72.220 316.800,72.400 317.205,72.400 317.700 C 72.401 318.796,74.047 320.800,74.947 320.800 C 75.306 320.800,75.600 320.980,75.600 321.200 C 75.600 321.420,76.320 321.600,77.200 321.600 C 78.080 321.600,78.800 321.780,78.800 322.000 C 78.800 322.248,81.000 322.400,84.600 322.400 C 90.133 322.400,90.400 322.437,90.400 323.200 C 90.400 323.640,90.580 324.000,90.800 324.000 C 91.020 324.000,91.200 324.270,91.200 324.600 C 91.200 324.930,91.380 325.200,91.600 325.200 C 91.820 325.200,92.000 325.560,92.000 326.000 C 92.000 326.440,92.180 326.800,92.400 326.800 C 92.620 326.800,92.800 327.340,92.800 328.000 C 92.800 328.660,92.620 329.200,92.400 329.200 C 92.180 329.200,92.000 329.436,92.000 329.725 C 92.000 330.013,91.640 330.636,91.200 331.108 C 90.760 331.580,90.400 332.244,90.400 332.583 C 90.400 332.922,90.220 333.200,90.000 333.200 C 89.780 333.200,89.600 333.560,89.600 334.000 C 89.600 334.440,89.420 334.800,89.200 334.800 C 88.980 334.800,88.796 335.025,88.791 335.300 C 88.786 335.575,88.430 336.250,88.000 336.800 C 87.369 337.606,87.216 338.442,87.209 341.111 L 87.200 344.421 88.989 346.211 C 89.974 347.195,91.054 348.000,91.389 348.000 C 91.725 348.000,92.000 348.180,92.000 348.400 C 92.000 348.620,92.236 348.800,92.525 348.800 C 92.813 348.800,93.398 349.125,93.825 349.522 C 94.251 349.920,95.185 350.503,95.900 350.820 C 96.615 351.136,97.200 351.503,97.200 351.635 C 97.200 351.766,98.055 352.305,99.100 352.832 C 100.145 353.358,101.090 353.882,101.200 353.995 C 101.448 354.249,102.899 355.080,105.000 356.170 C 105.880 356.626,106.810 357.197,107.066 357.437 C 107.322 357.678,108.132 358.118,108.866 358.415 C 109.600 358.712,110.290 359.055,110.400 359.177 C 110.510 359.300,111.030 359.642,111.555 359.938 C 112.080 360.233,113.120 360.818,113.867 361.238 C 115.341 362.066,119.756 362.318,120.200 361.600 C 120.336 361.380,120.741 361.200,121.100 361.200 C 121.949 361.200,124.732 358.212,125.044 356.965 C 125.178 356.434,125.447 356.000,125.643 356.000 C 125.840 356.000,126.000 355.640,126.000 355.200 C 126.000 354.760,126.180 354.400,126.400 354.400 C 126.620 354.400,126.800 354.122,126.800 353.783 C 126.800 353.444,127.160 352.780,127.600 352.308 C 128.040 351.836,128.400 351.213,128.400 350.925 C 128.400 350.636,128.580 350.400,128.800 350.400 C 129.020 350.400,129.200 350.040,129.200 349.600 C 129.200 348.859,129.467 348.800,132.800 348.800 C 136.133 348.800,136.400 348.859,136.400 349.600 C 136.400 350.040,136.580 350.400,136.800 350.400 C 137.020 350.400,137.200 350.678,137.200 351.017 C 137.200 351.356,137.560 352.020,138.000 352.492 C 138.440 352.964,138.800 353.587,138.800 353.875 C 138.800 354.164,138.980 354.400,139.200 354.400 C 139.420 354.400,139.600 354.760,139.600 355.200 C 139.600 355.640,139.780 356.000,140.000 356.000 C 140.220 356.000,140.400 356.270,140.400 356.600 C 140.400 356.930,140.580 357.200,140.800 357.200 C 141.020 357.200,141.200 357.435,141.200 357.722 C 141.200 358.497,143.807 361.200,144.554 361.200 C 144.909 361.200,145.200 361.380,145.200 361.600 C 145.200 362.406,150.225 362.053,151.962 361.126 C 152.863 360.645,153.600 360.105,153.600 359.926 C 153.600 359.747,153.960 359.600,154.400 359.600 C 154.840 359.600,155.201 359.465,155.201 359.300 C 155.202 359.135,156.012 358.667,157.001 358.260 C 157.991 357.854,158.800 357.359,158.800 357.160 C 158.800 356.962,159.160 356.800,159.600 356.800 C 160.040 356.800,160.400 356.620,160.400 356.400 C 160.400 356.180,160.636 356.000,160.925 356.000 C 161.213 356.000,161.836 355.640,162.308 355.200 C 162.780 354.760,163.444 354.400,163.783 354.400 C 164.122 354.400,164.400 354.220,164.400 354.000 C 164.400 353.780,164.760 353.600,165.200 353.600 C 165.640 353.600,166.000 353.442,166.000 353.249 C 166.000 353.055,166.540 352.673,167.200 352.400 C 167.860 352.127,168.400 351.745,168.400 351.551 C 168.400 351.358,168.745 351.200,169.167 351.200 C 169.588 351.200,169.993 351.065,170.067 350.900 C 170.234 350.524,172.364 349.225,173.300 348.929 C 173.685 348.807,174.000 348.548,174.000 348.353 C 174.000 348.159,174.198 348.000,174.440 348.000 C 176.152 348.000,178.400 344.262,178.400 341.416 C 178.400 338.752,177.793 336.410,177.100 336.403 C 176.935 336.401,176.800 336.040,176.800 335.600 C 176.800 335.160,176.620 334.800,176.400 334.800 C 176.180 334.800,176.000 334.455,176.000 334.033 C 176.000 333.612,175.865 333.207,175.700 333.133 C 175.535 333.060,175.048 332.280,174.617 331.400 C 174.186 330.520,173.499 329.305,173.090 328.700 C 172.680 328.095,172.538 327.600,172.773 327.600 C 173.008 327.600,173.200 327.322,173.200 326.983 C 173.200 326.644,173.551 325.990,173.980 325.529 C 174.409 325.069,174.873 324.176,175.012 323.546 L 175.264 322.400 181.008 322.400 C 184.406 322.400,186.854 322.237,187.000 322.000 C 187.136 321.780,187.779 321.600,188.429 321.600 C 189.906 321.600,192.388 320.035,192.395 319.100 C 192.398 318.715,192.580 318.400,192.800 318.400 C 193.020 318.400,193.200 318.040,193.200 317.600 C 193.200 317.160,193.380 316.800,193.600 316.800 C 193.860 316.800,194.000 311.200,194.000 300.800 C 194.000 290.400,193.860 284.800,193.600 284.800 C 193.380 284.800,193.200 284.440,193.200 284.000 C 193.200 283.560,193.020 283.200,192.800 283.200 C 192.580 283.200,192.400 282.970,192.400 282.689 C 192.400 282.115,191.004 280.800,190.395 280.800 C 190.178 280.800,190.000 280.620,190.000 280.400 C 190.000 280.149,187.457 280.000,183.171 280.000 C 175.645 280.000,175.859 280.068,174.632 277.300 C 174.218 276.365,173.747 275.600,173.586 275.600 C 172.468 275.600,173.252 271.941,174.685 270.471 C 174.968 270.181,175.200 269.596,175.200 269.171 C 175.200 268.747,175.380 268.400,175.600 268.400 C 175.820 268.400,176.000 268.040,176.000 267.600 C 176.000 267.160,176.180 266.800,176.400 266.800 C 176.620 266.800,176.800 266.530,176.800 266.200 C 176.800 265.870,176.935 265.599,177.100 265.597 C 178.279 265.585,178.911 258.878,177.900 257.120 C 177.130 255.781,175.124 253.865,173.797 253.201 C 173.139 252.871,172.510 252.511,172.400 252.401 C 172.006 252.005,169.787 250.746,169.100 250.529 C 168.715 250.407,168.400 250.148,168.400 249.953 C 168.400 249.759,168.122 249.600,167.783 249.600 C 167.444 249.600,166.780 249.240,166.308 248.800 C 165.836 248.360,165.213 248.000,164.925 248.000 C 164.636 248.000,164.400 247.820,164.400 247.600 C 164.400 247.380,164.040 247.200,163.600 247.200 C 163.160 247.200,162.797 247.065,162.794 246.900 C 162.790 246.735,161.890 246.160,160.794 245.621 C 159.697 245.083,158.800 244.512,158.800 244.353 C 158.800 244.194,158.260 243.945,157.600 243.800 C 156.940 243.655,156.400 243.371,156.400 243.168 C 156.400 242.966,156.130 242.800,155.800 242.800 C 155.470 242.800,155.200 242.620,155.200 242.400 C 155.200 242.180,154.840 242.000,154.400 242.000 C 153.960 242.000,153.600 241.820,153.600 241.600 C 153.600 241.380,153.240 241.200,152.800 241.200 C 152.360 241.200,152.000 241.020,152.000 240.800 C 152.000 240.580,151.640 240.400,151.200 240.400 C 150.760 240.400,150.400 240.220,150.400 240.000 C 150.400 239.780,149.421 239.600,148.224 239.600 C 147.027 239.600,145.936 239.780,145.800 240.000 C 145.664 240.220,145.203 240.400,144.776 240.400 C 144.349 240.400,144.000 240.580,144.000 240.800 C 144.000 241.020,143.807 241.200,143.571 241.200 C 142.994 241.200,142.000 242.227,142.000 242.825 C 142.000 243.089,141.671 243.597,141.270 243.953 C 140.868 244.309,140.284 245.185,139.972 245.900 C 139.660 246.615,139.269 247.200,139.102 247.200 C 138.936 247.200,138.800 247.560,138.800 248.000 C 138.800 248.440,138.620 248.800,138.400 248.800 C 138.180 248.800,138.000 249.070,138.000 249.400 C 138.000 249.730,137.820 250.000,137.600 250.000 C 137.380 250.000,137.200 250.270,137.200 250.600 C 137.200 250.930,137.020 251.200,136.800 251.200 C 136.580 251.200,136.400 251.560,136.400 252.000 C 136.400 252.741,136.133 252.800,132.800 252.800 C 129.823 252.800,129.200 252.693,129.200 252.183 C 129.200 251.844,128.840 251.180,128.400 250.708 C 127.960 250.236,127.600 249.613,127.600 249.325 C 127.600 249.036,127.420 248.800,127.200 248.800 C 126.980 248.800,126.800 248.440,126.800 248.000 C 126.800 247.560,126.620 247.200,126.400 247.200 C 126.180 247.200,126.000 246.930,126.000 246.600 C 126.000 246.270,125.840 246.000,125.643 246.000 C 125.447 246.000,125.168 245.528,125.024 244.952 C 124.879 244.375,124.544 243.677,124.280 243.401 C 124.016 243.124,123.535 242.516,123.212 242.049 C 122.888 241.582,122.393 241.200,122.112 241.200 C 121.830 241.200,121.600 241.020,121.600 240.800 C 121.600 240.580,121.240 240.400,120.800 240.400 C 120.360 240.400,120.000 240.220,120.000 240.000 C 120.000 239.778,118.933 239.600,117.600 239.600 C 116.267 239.600,115.200 239.778,115.200 240.000 M117.740 261.017 C 119.185 263.613,120.609 265.624,121.464 266.276 L 122.847 267.331 132.800 267.331 L 142.753 267.331 144.122 266.287 C 145.270 265.411,148.016 261.229,149.757 257.703 C 150.407 256.388,150.908 256.543,156.400 259.762 C 162.353 263.251,162.207 262.849,159.325 267.823 C 156.230 273.163,156.065 275.801,158.608 279.231 C 160.937 282.373,162.163 284.359,163.032 286.400 C 166.018 293.410,166.906 294.000,174.463 294.000 L 179.600 294.000 179.600 300.800 L 179.600 307.600 174.900 307.602 C 167.936 307.606,165.826 308.590,164.187 312.600 C 162.921 315.695,161.563 318.222,159.994 320.400 C 155.901 326.083,155.821 327.668,159.327 333.732 C 162.324 338.916,162.483 338.486,156.288 342.000 C 150.045 345.542,150.571 345.451,149.328 343.200 C 144.682 334.782,143.929 334.151,138.815 334.387 C 134.392 334.591,131.010 334.591,126.800 334.388 C 122.014 334.157,121.067 334.776,118.043 340.112 C 117.642 340.820,116.855 342.210,116.296 343.200 C 115.022 345.454,115.533 345.541,109.299 342.000 C 104.033 339.009,103.217 338.179,104.363 336.980 C 104.563 336.771,105.184 335.772,105.742 334.760 C 109.754 327.497,109.811 326.679,106.622 322.117 C 104.582 319.198,103.208 316.703,101.274 312.400 C 99.494 308.442,97.640 307.600,90.703 307.600 L 86.000 307.600 86.000 300.800 L 86.000 294.000 91.115 294.000 C 98.742 294.000,99.573 293.449,102.566 286.400 C 102.986 285.410,104.246 283.273,105.365 281.652 C 108.293 277.410,108.759 276.417,108.781 274.385 C 108.799 272.642,108.428 271.663,106.472 268.300 C 103.278 262.806,103.067 263.461,109.200 259.808 C 115.467 256.075,114.948 256.002,117.740 261.017 M128.522 280.996 C 112.300 284.961,107.103 304.692,119.336 315.872 C 131.254 326.765,149.917 319.979,152.813 303.700 C 155.188 290.344,141.733 277.768,128.522 280.996 M134.800 295.200 C 134.800 295.420,135.078 295.600,135.418 295.600 C 136.218 295.600,138.000 297.382,138.000 298.182 C 138.000 298.522,138.180 298.800,138.400 298.800 C 138.620 298.800,138.800 299.700,138.800 300.800 C 138.800 301.900,138.620 302.800,138.400 302.800 C 138.180 302.800,138.000 303.078,138.000 303.418 C 138.000 304.218,136.218 306.000,135.418 306.000 C 135.078 306.000,134.800 306.180,134.800 306.400 C 134.800 306.620,133.900 306.800,132.800 306.800 C 131.700 306.800,130.800 306.620,130.800 306.400 C 130.800 306.180,130.522 306.000,130.182 306.000 C 129.382 306.000,127.600 304.218,127.600 303.418 C 127.600 303.078,127.420 302.800,127.200 302.800 C 126.980 302.800,126.800 301.900,126.800 300.800 C 126.800 299.700,126.980 298.800,127.200 298.800 C 127.420 298.800,127.600 298.522,127.600 298.182 C 127.600 297.382,129.382 295.600,130.182 295.600 C 130.522 295.600,130.800 295.420,130.800 295.200 C 130.800 294.980,131.700 294.800,132.800 294.800 C 133.900 294.800,134.800 294.980,134.800 295.200 " stroke="none" fill="#0eb4fc" fill-rule="evenodd"></path><path id="path2" d="M164.400 38.400 C 164.400 38.620,164.112 38.800,163.760 38.800 C 162.991 38.800,160.853 41.008,160.356 42.315 C 160.160 42.831,160.000 46.120,160.000 49.626 C 160.000 55.733,159.967 56.000,159.200 56.000 C 158.760 56.000,158.400 56.180,158.400 56.400 C 158.400 56.620,158.040 56.800,157.600 56.800 C 157.160 56.800,156.800 56.980,156.800 57.200 C 156.800 58.971,153.852 57.462,150.227 53.837 C 148.157 51.768,146.090 49.955,145.632 49.810 C 145.174 49.665,144.800 49.378,144.800 49.173 C 144.800 48.452,138.493 48.735,137.508 49.500 C 133.976 52.245,110.761 76.002,110.029 77.621 C 109.203 79.449,108.881 83.200,109.550 83.200 C 109.743 83.200,110.016 83.785,110.159 84.500 C 110.347 85.447,111.502 86.866,114.409 89.722 C 118.223 93.470,118.890 94.450,118.000 95.000 C 117.780 95.136,117.600 95.597,117.600 96.024 C 117.600 96.451,117.420 96.800,117.200 96.800 C 116.980 96.800,116.800 97.173,116.800 97.629 C 116.800 99.400,116.051 99.600,109.423 99.600 C 102.635 99.600,102.276 99.692,100.107 101.978 C 99.183 102.953,98.800 103.736,98.800 104.655 C 98.800 105.369,98.620 106.064,98.400 106.200 C 98.143 106.359,98.000 112.871,98.000 124.424 C 98.000 136.141,98.139 142.400,98.400 142.400 C 98.620 142.400,98.800 143.120,98.800 144.000 C 98.800 144.880,98.935 145.601,99.100 145.603 C 99.265 145.604,99.707 146.144,100.081 146.803 C 100.456 147.461,101.041 148.000,101.381 148.000 C 101.722 148.000,102.000 148.180,102.000 148.400 C 102.000 148.620,102.349 148.800,102.776 148.800 C 103.203 148.800,103.664 148.980,103.800 149.200 C 103.947 149.437,106.444 149.600,109.944 149.600 C 116.034 149.600,116.800 149.788,116.800 151.280 C 116.800 151.676,116.980 152.000,117.200 152.000 C 117.420 152.000,117.600 152.349,117.600 152.776 C 117.600 153.203,117.780 153.664,118.000 153.800 C 118.950 154.387,118.260 155.778,115.900 158.036 C 110.998 162.726,110.007 163.809,110.003 164.476 C 110.001 164.848,109.820 165.264,109.600 165.400 C 109.380 165.536,109.200 166.627,109.200 167.824 C 109.200 169.021,109.380 170.000,109.600 170.000 C 109.820 170.000,110.000 170.462,110.000 171.026 C 110.000 171.842,112.735 174.776,123.330 185.326 C 137.112 199.051,137.730 199.600,139.371 199.600 C 139.911 199.600,140.464 199.780,140.600 200.000 C 140.922 200.520,142.400 200.520,142.400 200.000 C 142.400 199.780,143.014 199.600,143.764 199.600 C 144.961 199.600,145.668 199.068,149.547 195.252 L 153.967 190.904 155.784 191.319 C 156.783 191.548,157.600 191.884,157.600 192.067 C 157.600 192.250,157.924 192.400,158.320 192.400 C 159.819 192.400,160.000 193.159,160.000 199.454 C 160.000 202.806,160.167 205.965,160.372 206.474 C 160.853 207.673,162.563 209.600,163.147 209.600 C 163.396 209.600,163.600 209.780,163.600 210.000 C 163.600 210.240,165.200 210.400,167.600 210.400 C 170.000 210.400,171.600 210.240,171.600 210.000 C 171.600 209.780,172.290 209.600,173.133 209.600 C 173.977 209.600,174.801 209.465,174.966 209.300 C 175.229 209.036,178.048 208.484,182.903 207.744 C 183.729 207.618,184.505 207.355,184.626 207.158 C 184.748 206.961,185.278 206.800,185.805 206.800 C 188.223 206.800,191.600 204.190,191.600 202.322 C 191.600 201.705,191.780 201.200,192.000 201.200 C 192.220 201.200,192.400 200.300,192.400 199.200 C 192.400 198.100,192.220 197.200,192.000 197.200 C 191.780 197.200,191.600 196.748,191.600 196.196 C 191.600 195.053,189.648 192.800,188.657 192.800 C 188.296 192.800,188.000 192.601,188.000 192.358 C 188.000 191.774,186.231 192.037,179.860 193.565 C 173.690 195.045,174.000 195.189,174.000 190.836 C 174.000 185.554,172.823 183.119,169.600 181.732 C 168.133 181.100,164.489 179.584,157.834 176.837 C 151.539 174.239,149.920 174.624,144.608 179.983 C 143.073 181.532,141.631 182.800,141.404 182.800 C 140.901 182.800,126.400 168.337,126.400 167.835 C 126.400 167.639,128.008 165.816,129.973 163.785 C 134.584 159.019,135.011 157.112,132.631 151.902 C 132.103 150.746,130.919 147.910,129.999 145.600 C 126.036 135.642,125.490 135.200,117.140 135.200 L 112.400 135.200 112.400 124.614 C 112.400 112.073,111.760 113.200,118.883 113.200 C 125.571 113.200,126.265 112.660,129.210 105.168 C 129.679 103.975,130.337 102.370,130.672 101.600 C 131.007 100.830,131.425 99.840,131.600 99.400 C 131.775 98.960,132.237 97.880,132.626 97.000 C 135.041 91.538,134.666 89.866,129.928 84.968 C 127.988 82.963,126.400 81.157,126.400 80.957 C 126.400 80.432,140.921 66.000,141.448 66.000 C 141.690 66.000,143.399 67.461,145.244 69.246 C 150.837 74.655,152.221 74.730,162.200 70.161 C 162.860 69.859,164.910 69.004,166.756 68.261 C 172.944 65.771,174.000 64.269,174.000 57.951 C 174.000 53.573,173.957 53.628,176.754 54.398 C 181.680 55.755,187.027 56.830,187.839 56.626 C 189.097 56.310,191.600 53.771,191.600 52.810 C 191.600 52.391,191.780 51.936,192.000 51.800 C 192.485 51.500,192.532 48.262,192.065 47.295 C 191.881 46.913,191.471 46.060,191.155 45.400 C 190.839 44.740,190.180 44.022,189.690 43.805 C 189.201 43.588,188.800 43.273,188.800 43.105 C 188.800 42.937,188.451 42.800,188.024 42.800 C 187.597 42.800,187.136 42.620,187.000 42.400 C 186.864 42.180,186.054 42.000,185.200 42.000 C 184.346 42.000,183.536 41.820,183.400 41.600 C 183.264 41.380,182.443 41.200,181.576 41.200 C 180.709 41.200,180.000 41.020,180.000 40.800 C 180.000 40.580,179.280 40.400,178.400 40.400 C 177.520 40.400,176.800 40.220,176.800 40.000 C 176.800 39.780,176.080 39.600,175.200 39.600 C 174.320 39.600,173.600 39.420,173.600 39.200 C 173.600 38.980,172.891 38.800,172.024 38.800 C 171.157 38.800,170.336 38.620,170.200 38.400 C 170.064 38.180,168.703 38.000,167.176 38.000 C 165.592 38.000,164.400 38.172,164.400 38.400 M185.284 91.033 C 184.964 91.385,183.969 91.600,182.660 91.600 C 175.982 91.600,167.168 95.640,161.676 101.220 C 158.238 104.712,154.000 111.390,154.000 113.316 C 154.000 113.604,153.849 114.011,153.664 114.220 C 151.761 116.375,151.761 132.425,153.664 134.580 C 153.849 134.789,154.000 135.189,154.000 135.468 C 154.000 135.748,154.454 136.927,155.008 138.088 C 160.212 148.992,170.031 156.051,181.400 157.059 C 182.940 157.196,184.677 157.582,185.260 157.917 C 187.222 159.043,191.600 156.163,191.600 153.746 C 191.600 153.226,191.780 152.800,192.000 152.800 C 192.220 152.800,192.400 151.900,192.400 150.800 C 192.400 149.700,192.220 148.800,192.000 148.800 C 191.780 148.800,191.600 148.295,191.600 147.678 C 191.600 145.389,189.260 143.827,185.580 143.660 C 183.831 143.580,182.400 143.354,182.400 143.158 C 182.400 142.961,181.680 142.800,180.800 142.800 C 179.920 142.800,179.200 142.620,179.200 142.400 C 179.200 142.180,178.784 142.000,178.275 142.000 C 177.767 142.000,177.002 141.685,176.575 141.300 C 176.149 140.915,175.305 140.345,174.700 140.032 C 174.095 139.720,173.600 139.315,173.600 139.132 C 173.600 138.950,173.399 138.800,173.154 138.800 C 172.601 138.800,170.000 136.004,170.000 135.410 C 170.000 135.172,169.640 134.717,169.200 134.400 C 168.760 134.083,168.400 133.503,168.400 133.112 C 168.400 132.720,168.220 132.400,168.000 132.400 C 167.780 132.400,167.600 131.950,167.600 131.400 C 167.600 130.850,167.420 130.400,167.200 130.400 C 166.980 130.400,166.800 129.871,166.800 129.224 C 166.800 128.577,166.620 127.936,166.400 127.800 C 166.180 127.664,166.000 126.134,166.000 124.400 C 166.000 122.666,166.180 121.136,166.400 121.000 C 166.620 120.864,166.800 120.223,166.800 119.576 C 166.800 118.929,166.980 118.400,167.200 118.400 C 167.420 118.400,167.600 118.166,167.600 117.880 C 167.600 117.144,168.541 115.207,168.900 115.203 C 169.065 115.201,169.200 114.929,169.200 114.597 C 169.200 113.800,173.952 108.996,175.102 108.631 C 175.596 108.474,176.000 108.178,176.000 107.973 C 176.000 107.768,176.360 107.600,176.800 107.600 C 177.240 107.600,177.600 107.420,177.600 107.200 C 177.600 106.980,178.039 106.800,178.576 106.800 C 179.113 106.800,179.664 106.620,179.800 106.400 C 179.936 106.180,181.286 106.000,182.800 106.000 C 184.314 106.000,185.664 105.820,185.800 105.600 C 185.936 105.380,186.569 105.200,187.207 105.200 C 188.619 105.200,191.600 102.544,191.600 101.286 C 191.600 100.824,191.780 100.336,192.000 100.200 C 192.220 100.064,192.400 99.063,192.400 97.976 C 192.400 96.889,192.220 96.000,192.000 96.000 C 191.780 96.000,191.600 95.595,191.600 95.100 C 191.599 94.125,189.990 92.000,189.253 92.000 C 189.004 92.000,188.800 91.820,188.800 91.600 C 188.800 91.380,188.296 91.200,187.680 91.200 C 187.064 91.200,186.389 91.035,186.180 90.833 C 185.948 90.610,185.599 90.687,185.284 91.033 M75.600 166.400 C 75.600 166.620,75.306 166.800,74.947 166.800 C 74.047 166.800,72.401 168.804,72.400 169.900 C 72.400 170.395,72.220 170.800,72.000 170.800 C 71.757 170.800,71.600 172.600,71.600 175.400 C 71.600 179.733,71.554 180.000,70.800 180.000 C 70.360 180.000,70.000 180.180,70.000 180.400 C 70.000 180.620,69.645 180.800,69.212 180.800 C 68.779 180.800,67.785 181.159,67.003 181.598 L 65.582 182.397 63.016 179.898 C 59.726 176.696,59.356 176.400,58.640 176.400 C 58.314 176.400,57.936 176.220,57.800 176.000 C 57.664 175.780,56.483 175.600,55.176 175.600 C 53.859 175.600,52.800 175.778,52.800 176.000 C 52.800 176.220,52.440 176.400,52.000 176.400 C 51.560 176.400,51.200 176.580,51.200 176.800 C 51.200 177.020,50.980 177.200,50.712 177.200 C 49.167 177.200,48.002 179.735,48.001 183.100 C 48.000 185.034,48.166 186.400,48.400 186.400 C 48.620 186.400,48.800 186.650,48.800 186.957 C 48.800 187.481,51.223 190.045,54.039 192.500 C 54.733 193.105,55.098 193.600,54.850 193.600 C 54.603 193.600,54.400 193.870,54.400 194.200 C 54.400 194.530,54.220 194.800,54.000 194.800 C 53.780 194.800,53.600 195.149,53.600 195.576 C 53.600 196.003,53.420 196.464,53.200 196.600 C 52.980 196.736,52.800 197.251,52.800 197.744 C 52.800 199.386,52.123 199.600,46.920 199.600 C 43.907 199.600,42.000 199.755,42.000 200.000 C 42.000 200.220,41.706 200.400,41.347 200.400 C 40.537 200.400,38.801 202.361,38.800 203.276 C 38.800 203.648,38.620 204.064,38.400 204.200 C 37.876 204.524,37.876 209.600,38.400 209.600 C 38.620 209.600,38.800 209.891,38.800 210.246 C 38.800 211.182,41.596 213.600,42.678 213.600 C 43.185 213.600,43.600 213.780,43.600 214.000 C 43.600 214.243,45.400 214.400,48.200 214.400 L 52.800 214.400 52.800 215.600 C 52.800 216.260,52.980 216.800,53.200 216.800 C 53.420 216.800,53.600 217.149,53.600 217.576 C 53.600 218.003,53.780 218.464,54.000 218.600 C 54.944 219.183,54.222 220.574,51.600 223.228 C 50.060 224.786,48.800 226.317,48.800 226.631 C 48.800 226.944,48.620 227.200,48.400 227.200 C 48.165 227.200,48.000 228.600,48.000 230.600 C 48.000 232.600,48.165 234.000,48.400 234.000 C 48.620 234.000,48.800 234.236,48.800 234.525 C 48.800 234.814,49.295 235.489,49.900 236.025 C 53.912 239.581,57.376 238.974,62.547 233.811 C 64.325 232.036,65.813 230.839,65.904 231.111 C 65.993 231.380,66.412 231.600,66.833 231.600 C 67.255 231.600,67.600 231.780,67.600 232.000 C 67.600 232.220,67.949 232.400,68.376 232.400 C 68.803 232.400,69.264 232.580,69.400 232.800 C 69.536 233.020,70.087 233.200,70.624 233.200 L 71.600 233.200 71.600 237.976 C 71.600 240.729,71.769 242.858,72.000 243.000 C 72.220 243.136,72.400 243.527,72.400 243.870 C 72.400 244.787,75.210 247.200,76.278 247.200 C 76.785 247.200,77.200 247.380,77.200 247.600 C 77.200 247.820,78.010 248.000,79.000 248.000 C 79.990 248.000,80.800 247.820,80.800 247.600 C 80.800 247.380,81.256 247.200,81.813 247.200 C 82.940 247.200,85.600 244.821,85.600 243.813 C 85.600 243.476,85.780 243.200,86.000 243.200 C 86.245 243.200,86.400 241.267,86.400 238.200 L 86.400 233.200 87.376 233.200 C 87.913 233.200,88.464 233.020,88.600 232.800 C 88.736 232.580,89.197 232.400,89.624 232.400 C 90.051 232.400,90.400 232.220,90.400 232.000 C 90.400 231.780,90.749 231.600,91.176 231.600 C 91.603 231.600,92.070 231.411,92.212 231.180 C 92.374 230.918,92.721 231.047,93.136 231.525 C 97.961 237.078,99.330 238.000,102.751 238.000 C 106.431 238.000,109.600 235.716,109.600 233.062 C 109.600 232.478,109.780 232.000,110.000 232.000 C 110.220 232.000,110.400 231.381,110.400 230.624 C 110.400 229.867,110.220 229.136,110.000 229.000 C 109.780 228.864,109.600 228.397,109.600 227.962 C 109.600 226.835,108.541 225.334,105.902 222.722 C 103.305 220.152,103.304 220.151,104.400 218.200 C 104.840 217.417,105.200 216.457,105.200 216.068 C 105.200 214.676,106.039 214.400,110.280 214.400 C 112.760 214.400,114.400 214.241,114.400 214.000 C 114.400 213.780,114.856 213.600,115.413 213.600 C 116.540 213.600,119.200 211.221,119.200 210.213 C 119.200 209.876,119.380 209.600,119.600 209.600 C 119.831 209.600,120.000 208.333,120.000 206.600 C 120.000 204.867,119.831 203.600,119.600 203.600 C 119.380 203.600,119.200 203.322,119.200 202.982 C 119.200 202.642,118.758 201.922,118.218 201.382 C 117.678 200.842,116.958 200.400,116.618 200.400 C 116.278 200.400,116.000 200.220,116.000 200.000 C 116.000 199.755,114.083 199.600,111.049 199.600 L 106.097 199.600 105.615 198.300 C 105.350 197.585,104.968 196.687,104.767 196.305 C 104.565 195.923,104.400 195.338,104.400 195.005 C 104.400 194.672,104.220 194.400,104.000 194.400 C 102.870 194.400,103.919 192.581,106.600 189.890 C 108.757 187.726,109.600 186.595,109.600 185.864 C 109.600 185.305,109.780 184.736,110.000 184.600 C 110.220 184.464,110.400 183.733,110.400 182.976 C 110.400 182.219,110.220 181.600,110.000 181.600 C 109.780 181.600,109.600 181.060,109.600 180.400 C 109.600 179.740,109.440 179.200,109.243 179.200 C 109.047 179.200,108.774 178.750,108.636 178.200 C 108.498 177.650,108.118 177.200,107.792 177.200 C 107.467 177.200,107.200 177.020,107.200 176.800 C 107.200 176.580,106.750 176.400,106.200 176.400 C 105.650 176.400,105.200 176.220,105.200 176.000 C 105.200 175.778,104.133 175.600,102.800 175.600 C 101.467 175.600,100.400 175.778,100.400 176.000 C 100.400 176.220,99.950 176.400,99.400 176.400 C 98.850 176.400,98.400 176.580,98.400 176.800 C 98.400 177.020,98.218 177.200,97.995 177.200 C 97.772 177.200,96.431 178.370,95.015 179.800 C 92.659 182.179,91.605 182.888,91.597 182.100 C 91.593 181.761,89.674 180.800,89.000 180.800 C 88.758 180.800,88.075 180.575,87.483 180.300 L 86.406 179.800 86.403 174.900 C 86.401 171.902,86.245 170.000,86.000 170.000 C 85.780 170.000,85.600 169.722,85.600 169.382 C 85.600 168.582,83.818 166.800,83.018 166.800 C 82.678 166.800,82.400 166.620,82.400 166.400 C 82.400 166.165,81.000 166.000,79.000 166.000 C 77.000 166.000,75.600 166.165,75.600 166.400 M85.149 194.467 C 87.248 195.588,91.600 200.124,91.600 201.191 C 91.600 201.610,91.780 202.064,92.000 202.200 C 92.820 202.707,92.475 210.243,91.538 212.304 C 87.500 221.183,75.683 223.103,69.007 215.966 C 62.883 209.419,65.096 198.010,73.212 194.284 C 76.266 192.881,82.353 192.975,85.149 194.467 M345.747 282.655 C 344.838 283.615,344.208 284.394,344.347 284.387 C 344.676 284.369,345.949 283.239,347.170 281.880 C 348.771 280.097,347.530 280.773,345.747 282.655 M206.022 345.870 C 206.034 346.051,206.574 346.619,207.222 347.130 C 207.870 347.642,208.390 347.912,208.378 347.730 C 208.366 347.549,207.826 346.981,207.178 346.470 C 206.530 345.958,206.010 345.688,206.022 345.870 " stroke="none" fill="#fc6c45" fill-rule="evenodd"></path><path id="path3" d="M76.000 194.400 C 76.000 194.620,75.638 194.800,75.195 194.800 C 73.483 194.800,67.600 200.072,67.600 201.606 C 67.600 202.017,67.420 202.464,67.200 202.600 C 66.980 202.736,66.800 203.467,66.800 204.224 C 66.800 204.981,66.600 205.600,66.355 205.600 C 66.065 205.600,66.001 206.053,66.174 206.900 C 66.319 207.615,66.539 208.787,66.663 209.504 C 66.787 210.221,67.049 210.906,67.244 211.027 C 67.440 211.148,67.600 211.582,67.600 211.990 C 67.600 212.399,67.735 212.793,67.900 212.867 C 68.065 212.940,68.700 213.670,69.312 214.489 C 70.539 216.132,73.589 218.400,74.572 218.400 C 74.917 218.400,75.200 218.580,75.200 218.800 C 75.200 219.037,76.659 219.200,78.776 219.200 C 80.743 219.200,82.464 219.020,82.600 218.800 C 82.736 218.580,83.287 218.400,83.824 218.400 C 84.361 218.400,84.800 218.250,84.800 218.068 C 84.800 217.885,85.295 217.481,85.900 217.169 C 87.252 216.474,89.600 214.032,89.600 213.322 C 89.600 213.035,89.780 212.800,90.000 212.800 C 90.220 212.800,90.400 212.530,90.400 212.200 C 90.400 211.870,90.580 211.600,90.800 211.600 C 91.020 211.600,91.200 211.060,91.200 210.400 C 91.200 209.740,91.380 209.200,91.600 209.200 C 91.822 209.200,92.000 208.133,92.000 206.800 C 92.000 205.467,91.822 204.400,91.600 204.400 C 91.380 204.400,91.200 203.860,91.200 203.200 C 91.200 202.540,91.020 202.000,90.800 202.000 C 90.580 202.000,90.400 201.680,90.400 201.288 C 90.400 200.897,90.040 200.317,89.600 200.000 C 89.160 199.683,88.800 199.202,88.800 198.932 C 88.800 198.662,88.125 197.937,87.300 197.320 C 86.475 196.704,85.740 196.065,85.667 195.900 C 85.593 195.735,85.188 195.600,84.767 195.600 C 84.345 195.600,84.000 195.420,84.000 195.200 C 84.000 194.980,83.651 194.800,83.224 194.800 C 82.797 194.800,82.336 194.620,82.200 194.400 C 82.064 194.180,80.613 194.000,78.976 194.000 C 77.259 194.000,76.000 194.169,76.000 194.400 M109.200 259.808 C 103.067 263.461,103.278 262.806,106.472 268.300 C 109.862 274.129,109.767 275.274,105.365 281.652 C 104.246 283.273,102.986 285.410,102.566 286.400 C 99.573 293.449,98.742 294.000,91.115 294.000 L 86.000 294.000 86.000 300.800 L 86.000 307.600 90.703 307.600 C 97.640 307.600,99.494 308.442,101.274 312.400 C 103.208 316.703,104.582 319.198,106.622 322.117 C 109.811 326.679,109.754 327.497,105.742 334.760 C 105.184 335.772,104.563 336.771,104.363 336.980 C 103.217 338.179,104.033 339.009,109.299 342.000 C 115.533 345.541,115.022 345.454,116.296 343.200 C 116.855 342.210,117.642 340.820,118.043 340.112 C 121.067 334.776,122.014 334.157,126.800 334.388 C 131.010 334.591,134.392 334.591,138.815 334.387 C 143.929 334.151,144.682 334.782,149.328 343.200 C 150.571 345.451,150.045 345.542,156.288 342.000 C 162.483 338.486,162.324 338.916,159.327 333.732 C 155.821 327.668,155.901 326.083,159.994 320.400 C 161.563 318.222,162.921 315.695,164.187 312.600 C 165.826 308.590,167.936 307.606,174.900 307.602 L 179.600 307.600 179.600 300.800 L 179.600 294.000 174.463 294.000 C 166.906 294.000,166.018 293.410,163.032 286.400 C 162.163 284.359,160.937 282.373,158.608 279.231 C 156.065 275.801,156.230 273.163,159.325 267.823 C 162.207 262.849,162.353 263.251,156.400 259.762 C 150.908 256.543,150.407 256.388,149.757 257.703 C 148.016 261.229,145.270 265.411,144.122 266.287 L 142.753 267.331 132.800 267.331 L 122.847 267.331 121.464 266.276 C 120.609 265.624,119.185 263.613,117.740 261.017 C 114.948 256.002,115.467 256.075,109.200 259.808 M136.200 280.811 C 141.726 282.213,144.674 283.839,147.601 287.101 C 155.072 295.424,154.670 307.992,146.694 315.452 C 130.250 330.835,105.195 312.556,114.631 292.060 C 118.251 284.199,128.495 278.855,136.200 280.811 " stroke="none" fill="#a1eefc" fill-rule="evenodd"></path><path id="path4" d="M237.200 38.380 C 237.200 38.633,236.087 38.800,234.400 38.800 C 232.800 38.800,231.600 38.971,231.600 39.200 C 231.600 39.420,230.801 39.600,229.824 39.600 C 228.847 39.600,227.936 39.780,227.800 40.000 C 227.664 40.220,226.933 40.400,226.176 40.400 C 225.419 40.400,224.800 40.580,224.800 40.800 C 224.800 41.020,224.260 41.200,223.600 41.200 C 222.940 41.200,222.400 41.380,222.400 41.600 C 222.400 41.820,221.860 42.000,221.200 42.000 C 220.540 42.000,220.000 42.141,220.000 42.313 C 220.000 42.485,219.190 42.865,218.199 43.157 C 216.297 43.719,211.725 45.983,209.938 47.248 C 209.354 47.662,208.771 48.000,208.643 48.000 C 208.425 48.000,208.026 48.306,205.905 50.100 C 205.450 50.485,204.963 50.800,204.824 50.800 C 204.381 50.800,200.550 54.563,200.065 55.474 C 199.493 56.548,199.438 62.400,200.000 62.400 C 200.220 62.400,200.400 62.601,200.400 62.846 C 200.400 63.091,201.075 63.919,201.900 64.685 C 204.307 66.921,208.725 66.361,212.038 63.399 C 222.718 53.854,240.226 50.013,255.200 53.929 C 260.808 55.396,268.619 59.698,273.011 63.739 L 275.000 65.568 270.800 65.591 C 253.772 65.686,239.500 74.817,239.420 85.669 C 239.359 93.872,248.919 95.100,252.598 87.361 C 255.680 80.880,265.044 78.155,279.396 79.563 C 284.435 80.058,285.755 80.551,286.117 82.076 C 286.238 82.584,286.615 84.080,286.955 85.400 C 287.650 88.106,287.837 97.749,287.233 99.772 C 287.031 100.447,286.496 102.578,286.043 104.506 C 285.091 108.557,283.440 112.220,280.760 116.232 C 277.548 121.039,277.420 123.893,280.282 126.864 C 284.920 131.679,289.717 129.069,295.100 118.800 C 297.428 114.360,297.158 114.534,300.081 115.583 C 302.981 116.625,310.782 120.688,311.600 121.583 C 311.710 121.704,312.817 122.575,314.060 123.519 C 320.573 128.466,329.503 140.428,331.292 146.600 C 331.419 147.040,331.971 148.660,332.518 150.200 C 333.435 152.782,333.844 154.276,334.816 158.600 C 336.791 167.387,335.813 180.085,332.397 190.000 C 331.193 193.492,331.447 193.425,326.262 191.632 C 324.315 190.959,321.534 190.169,320.081 189.875 L 317.438 189.341 316.755 186.370 C 315.463 180.755,313.890 177.282,310.729 173.062 C 303.607 163.551,289.105 159.059,284.598 164.967 C 281.139 169.502,284.679 176.000,290.609 176.000 C 298.440 176.000,305.290 186.582,303.619 196.100 C 302.198 204.199,297.441 209.371,290.534 210.328 C 280.720 211.688,280.599 224.049,290.400 223.967 C 300.609 223.882,310.050 217.052,314.667 206.411 C 316.292 202.666,316.297 202.665,321.800 204.491 C 332.144 207.924,340.782 216.639,345.103 228.000 C 345.890 230.069,346.133 231.044,347.179 236.331 C 349.019 245.639,346.443 257.924,340.886 266.335 L 339.475 268.470 338.934 266.735 C 336.680 259.511,335.554 256.804,332.980 252.428 C 327.029 242.308,314.319 236.908,308.992 242.235 C 304.558 246.669,308.036 254.000,314.574 254.000 C 321.424 254.000,327.637 269.871,327.415 286.800 C 327.336 292.764,327.215 293.589,325.668 298.646 C 322.743 308.209,313.252 317.717,303.755 320.598 C 300.413 321.612,299.847 321.471,300.165 319.700 C 300.845 315.921,301.576 310.461,301.587 309.077 C 301.599 307.624,302.400 306.259,304.889 303.450 C 309.686 298.037,312.082 283.941,309.658 275.400 C 307.861 269.068,303.099 261.597,299.860 260.029 C 293.186 256.798,286.864 265.531,292.056 270.808 C 298.103 276.955,298.711 288.317,293.393 295.800 C 286.061 306.117,272.523 307.160,262.747 298.162 C 258.900 294.621,253.513 295.114,251.400 299.201 C 246.533 308.613,267.060 320.376,283.105 317.369 C 287.187 316.604,287.086 316.518,286.021 319.876 C 280.635 336.848,266.985 347.600,250.825 347.600 C 246.395 347.600,245.176 347.461,239.800 346.341 C 237.370 345.835,232.498 344.489,231.400 344.022 C 230.960 343.834,229.970 343.454,229.200 343.177 C 223.484 341.123,216.598 336.568,214.110 333.197 C 211.339 329.443,210.609 328.776,208.406 327.986 C 204.998 326.765,201.783 327.635,200.705 330.070 C 200.430 330.691,200.069 331.200,199.902 331.200 C 199.399 331.200,199.564 336.963,200.100 338.117 C 200.375 338.709,200.735 339.195,200.900 339.197 C 201.065 339.199,201.200 339.435,201.200 339.722 C 201.200 340.009,201.822 340.923,202.583 341.754 C 203.344 342.584,204.064 343.571,204.183 343.945 C 204.302 344.320,204.894 344.921,205.499 345.281 C 206.105 345.640,207.458 346.759,208.507 347.767 C 209.556 348.775,210.589 349.600,210.802 349.600 C 211.168 349.600,212.221 350.366,213.416 351.500 C 213.706 351.775,214.140 352.000,214.380 352.000 C 214.620 352.000,215.488 352.438,216.309 352.974 C 217.129 353.509,218.610 354.262,219.600 354.646 C 220.590 355.031,221.490 355.465,221.600 355.611 C 221.710 355.757,222.337 356.009,222.994 356.170 C 223.650 356.331,225.138 356.897,226.299 357.428 C 227.461 357.960,229.399 358.510,230.606 358.652 C 231.813 358.794,232.800 359.065,232.800 359.255 C 232.800 359.445,233.430 359.600,234.200 359.600 C 234.970 359.600,235.600 359.780,235.600 360.000 C 235.600 360.220,236.500 360.400,237.600 360.400 C 238.700 360.400,239.600 360.580,239.600 360.800 C 239.600 361.022,240.659 361.200,241.976 361.200 C 243.283 361.200,244.464 361.380,244.600 361.600 C 244.747 361.838,247.263 362.000,250.800 362.000 C 254.337 362.000,256.853 361.838,257.000 361.600 C 257.136 361.380,258.137 361.200,259.224 361.200 C 260.311 361.200,261.200 361.020,261.200 360.800 C 261.200 360.580,261.920 360.400,262.800 360.400 C 263.680 360.400,264.400 360.220,264.400 360.000 C 264.400 359.780,265.030 359.600,265.800 359.600 C 266.570 359.600,267.200 359.442,267.200 359.250 C 267.200 359.058,267.736 358.793,268.392 358.662 C 269.885 358.363,274.954 356.024,275.133 355.551 C 275.207 355.358,275.572 355.200,275.945 355.200 C 276.318 355.200,276.883 354.840,277.200 354.400 C 277.517 353.960,277.962 353.600,278.188 353.599 C 278.415 353.599,279.230 353.059,280.000 352.400 C 280.770 351.741,281.542 351.201,281.716 351.201 C 282.443 351.199,289.551 343.511,291.361 340.770 C 292.439 339.136,293.474 337.740,293.661 337.667 C 293.847 337.593,294.000 337.278,294.000 336.967 C 294.000 336.525,294.703 336.400,297.176 336.400 C 298.923 336.400,300.464 336.220,300.600 336.000 C 300.736 335.780,301.726 335.600,302.800 335.600 C 303.874 335.600,304.864 335.420,305.000 335.200 C 305.136 334.980,305.777 334.800,306.424 334.800 C 307.071 334.800,307.600 334.620,307.600 334.400 C 307.600 334.180,307.873 334.000,308.206 334.000 C 309.176 334.000,312.000 333.034,312.000 332.703 C 312.000 332.536,312.349 332.400,312.776 332.400 C 313.203 332.400,313.664 332.220,313.800 332.000 C 313.936 331.780,314.363 331.600,314.748 331.600 C 315.134 331.600,315.798 331.285,316.225 330.900 C 316.651 330.515,317.537 329.930,318.194 329.600 C 319.364 329.012,320.364 328.299,321.416 327.300 C 321.706 327.025,322.044 326.800,322.167 326.800 C 322.900 326.800,331.600 318.117,331.600 317.386 C 331.600 317.064,331.750 316.800,331.932 316.800 C 332.115 316.800,332.520 316.305,332.832 315.700 C 333.145 315.095,333.715 314.251,334.100 313.825 C 334.485 313.398,334.800 312.828,334.800 312.558 C 334.800 312.288,334.946 312.007,335.125 311.933 C 335.598 311.739,338.616 305.308,339.223 303.200 C 339.508 302.210,339.840 301.220,339.961 301.000 C 340.081 300.780,340.235 300.150,340.302 299.600 C 340.369 299.050,340.536 298.330,340.673 298.000 C 341.140 296.871,341.223 296.194,341.471 291.476 L 341.720 286.751 346.460 281.972 C 349.067 279.344,351.200 276.925,351.200 276.597 C 351.200 276.269,351.341 276.000,351.514 276.000 C 351.686 276.000,352.143 275.467,352.528 274.815 C 352.913 274.163,353.451 273.398,353.724 273.115 C 354.493 272.317,357.865 265.212,358.430 263.200 C 358.708 262.210,359.085 261.229,359.267 261.020 C 359.450 260.811,359.600 260.046,359.600 259.320 C 359.600 258.594,359.780 258.000,360.000 258.000 C 360.220 258.000,360.400 257.316,360.400 256.480 C 360.400 255.644,360.564 254.789,360.765 254.580 C 361.596 253.715,362.409 236.400,361.619 236.400 C 361.370 236.400,361.200 235.351,361.200 233.824 C 361.200 232.407,361.020 231.136,360.800 231.000 C 360.580 230.864,360.400 230.144,360.400 229.400 C 360.400 228.656,360.220 227.936,360.000 227.800 C 359.780 227.664,359.600 226.933,359.600 226.176 C 359.600 225.419,359.436 224.800,359.235 224.800 C 359.034 224.800,358.746 224.063,358.593 223.161 C 358.441 222.260,357.795 220.532,357.158 219.321 C 356.521 218.110,356.000 216.867,356.000 216.559 C 356.000 216.252,355.820 216.000,355.600 216.000 C 355.380 216.000,355.200 215.640,355.200 215.200 C 355.200 214.760,355.048 214.400,354.863 214.400 C 354.677 214.400,354.111 213.594,353.605 212.610 C 353.098 211.625,352.350 210.517,351.942 210.148 C 351.534 209.778,351.200 209.328,351.200 209.147 C 351.200 208.967,350.300 207.875,349.200 206.722 C 348.100 205.569,347.200 204.476,347.200 204.294 C 347.200 203.906,345.875 202.561,344.246 201.296 C 343.611 200.803,343.296 200.400,343.546 200.400 C 343.796 200.400,344.000 200.040,344.000 199.600 C 344.000 199.160,344.180 198.800,344.400 198.800 C 344.620 198.800,344.800 198.260,344.800 197.600 C 344.800 196.940,344.980 196.400,345.200 196.400 C 345.420 196.400,345.600 196.051,345.600 195.624 C 345.600 195.197,345.780 194.736,346.000 194.600 C 346.220 194.464,346.400 193.834,346.400 193.200 C 346.400 192.566,346.580 191.936,346.800 191.800 C 347.020 191.664,347.200 191.124,347.200 190.600 C 347.200 190.076,347.380 189.536,347.600 189.400 C 347.820 189.264,348.000 188.443,348.000 187.576 C 348.000 186.709,348.180 186.000,348.400 186.000 C 348.620 186.000,348.800 185.046,348.800 183.880 C 348.800 182.714,348.970 181.589,349.177 181.380 C 349.385 181.171,349.586 179.020,349.623 176.600 C 349.661 174.180,349.802 172.020,349.936 171.800 C 350.306 171.192,350.326 167.856,349.962 167.384 C 349.786 167.156,349.610 165.131,349.572 162.884 C 349.533 160.638,349.344 158.800,349.151 158.800 C 348.958 158.800,348.800 157.810,348.800 156.600 C 348.800 155.390,348.620 154.400,348.400 154.400 C 348.180 154.400,348.000 153.590,348.000 152.600 C 348.000 151.610,347.820 150.800,347.600 150.800 C 347.380 150.800,347.200 150.170,347.200 149.400 C 347.200 148.630,347.020 148.000,346.800 148.000 C 346.580 148.000,346.400 147.561,346.400 147.024 C 346.400 146.487,346.220 145.936,346.000 145.800 C 345.780 145.664,345.600 145.113,345.600 144.576 C 345.600 144.039,345.420 143.600,345.200 143.600 C 344.980 143.600,344.800 143.161,344.800 142.624 C 344.800 142.087,344.620 141.536,344.400 141.400 C 344.180 141.264,344.000 140.803,344.000 140.376 C 344.000 139.949,343.820 139.600,343.600 139.600 C 343.380 139.600,343.200 139.240,343.200 138.800 C 343.200 138.360,343.020 138.000,342.800 138.000 C 342.580 138.000,342.400 137.550,342.400 137.000 C 342.400 136.450,342.240 136.000,342.043 136.000 C 341.847 136.000,341.569 135.532,341.426 134.960 C 341.282 134.388,340.838 133.443,340.440 132.860 C 340.041 132.277,339.111 130.765,338.373 129.500 C 337.635 128.235,336.889 127.200,336.715 127.200 C 336.542 127.200,336.400 126.968,336.400 126.684 C 336.400 126.400,335.680 125.372,334.800 124.400 C 333.920 123.428,333.200 122.497,333.200 122.332 C 333.200 121.326,321.700 110.865,319.388 109.767 C 318.624 109.405,318.000 108.949,318.000 108.754 C 318.000 108.559,317.730 108.400,317.400 108.400 C 317.070 108.400,316.800 108.220,316.800 108.000 C 316.800 107.780,316.440 107.600,316.000 107.600 C 315.560 107.600,315.200 107.442,315.200 107.249 C 315.200 107.055,314.660 106.673,314.000 106.400 C 313.340 106.127,312.800 105.745,312.800 105.551 C 312.800 105.358,312.566 105.200,312.280 105.200 C 311.544 105.200,309.607 104.259,309.603 103.900 C 309.601 103.735,309.150 103.600,308.600 103.600 C 308.050 103.600,307.600 103.420,307.600 103.200 C 307.600 102.980,307.251 102.800,306.824 102.800 C 306.397 102.800,305.936 102.620,305.800 102.400 C 305.664 102.180,305.124 102.000,304.600 102.000 C 304.076 102.000,303.536 101.820,303.400 101.600 C 303.264 101.380,302.691 101.200,302.127 101.200 C 301.291 101.200,301.188 101.096,301.569 100.637 C 302.419 99.614,301.655 82.000,300.761 82.000 C 300.563 82.000,300.400 81.280,300.400 80.400 C 300.400 79.520,300.220 78.800,300.000 78.800 C 299.780 78.800,299.600 78.361,299.600 77.824 C 299.600 77.287,299.420 76.736,299.200 76.600 C 298.980 76.464,298.800 76.085,298.800 75.757 C 298.800 75.429,298.440 74.416,298.000 73.506 C 297.560 72.595,297.200 71.614,297.200 71.325 C 297.200 71.036,297.054 70.800,296.875 70.800 C 296.696 70.800,296.302 70.170,296.000 69.400 C 295.698 68.630,295.304 68.000,295.125 68.000 C 294.946 68.000,294.800 67.730,294.800 67.400 C 294.800 67.070,294.620 66.800,294.400 66.800 C 294.180 66.800,294.000 66.480,294.000 66.088 C 294.000 65.697,293.640 65.117,293.200 64.800 C 292.760 64.483,292.400 63.993,292.400 63.712 C 292.400 63.430,292.220 63.200,292.000 63.200 C 291.780 63.200,291.600 63.010,291.600 62.778 C 291.600 62.546,291.061 61.781,290.402 61.078 C 289.743 60.375,289.203 59.662,289.202 59.493 C 289.199 59.056,281.975 52.000,281.531 52.000 C 281.329 52.000,280.714 51.550,280.164 51.000 C 279.614 50.450,279.000 50.000,278.800 50.000 C 278.600 50.000,277.986 49.550,277.436 49.000 C 276.886 48.450,276.158 48.000,275.818 48.000 C 275.478 48.000,275.200 47.865,275.200 47.699 C 275.200 47.534,274.345 46.953,273.300 46.409 C 272.255 45.865,271.310 45.316,271.200 45.189 C 270.828 44.760,268.083 43.600,267.440 43.600 C 267.088 43.600,266.800 43.420,266.800 43.200 C 266.800 42.980,266.440 42.800,266.000 42.800 C 265.560 42.800,265.200 42.620,265.200 42.400 C 265.200 42.180,264.660 42.000,264.000 42.000 C 263.340 42.000,262.800 41.820,262.800 41.600 C 262.800 41.380,262.260 41.200,261.600 41.200 C 260.940 41.200,260.400 41.020,260.400 40.800 C 260.400 40.580,259.871 40.400,259.224 40.400 C 258.577 40.400,257.936 40.220,257.800 40.000 C 257.664 39.780,256.969 39.600,256.256 39.600 C 255.543 39.600,254.789 39.436,254.580 39.235 C 253.724 38.413,237.200 37.601,237.200 38.380 M230.954 113.165 C 228.306 114.368,227.050 116.364,227.050 119.369 C 227.050 123.883,229.146 125.561,235.774 126.351 C 255.319 128.679,266.048 148.109,257.318 165.365 C 253.159 173.586,243.868 179.532,235.096 179.586 C 227.101 179.635,223.776 188.430,230.241 192.425 C 232.039 193.537,239.223 193.343,243.800 192.059 C 276.913 182.774,284.787 140.540,257.193 120.227 C 249.467 114.539,235.943 110.900,230.954 113.165 M238.894 220.391 C 231.301 221.607,232.518 233.562,240.238 233.593 C 257.382 233.662,258.019 258.242,240.932 260.409 C 229.755 261.826,231.514 274.789,242.756 273.852 C 263.436 272.127,274.370 247.891,262.025 231.142 C 256.680 223.890,246.522 219.169,238.894 220.391 " stroke="none" fill="#fc506d" fill-rule="evenodd"></path></g></svg>