<svg xmlns="http://www.w3.org/2000/svg" viewBox="0 0 128 128" role="img" aria-label="MySQL icon">
  <defs>
    <linearGradient id="bgGrad" x1="0" x2="1" y1="0" y2="1">
      <stop offset="0%" stop-color="#0f4f75"/>
      <stop offset="100%" stop-color="#0a2f46"/>
    </linearGradient>
    <linearGradient id="dbGrad" x1="0" x2="0" y1="0" y2="1">
      <stop offset="0%" stop-color="#42b6ff"/>
      <stop offset="100%" stop-color="#1684c2"/>
    </linearGradient>
    <linearGradient id="accentGrad" x1="0" x2="1" y1="0" y2="0">
      <stop offset="0%" stop-color="#ffb24a"/>
      <stop offset="100%" stop-color="#ff8a1f"/>
    </linearGradient>
  </defs>

  <rect x="8" y="8" width="112" height="112" rx="24" fill="url(#bgGrad)"/>

  <ellipse cx="64" cy="41" rx="27" ry="9" fill="#5ec3ff"/>
  <rect x="37" y="41" width="54" height="34" fill="url(#dbGrad)"/>
  <ellipse cx="64" cy="75" rx="27" ry="9" fill="#1b92d4"/>
  <ellipse cx="64" cy="58" rx="27" ry="9" fill="#279ddf"/>

  <path d="M44 34c6-8 15-11 24-8 8 3 11 8 12 13-5-5-11-7-18-6-7 1-13 4-18 9z" fill="url(#accentGrad)"/>
  <circle cx="82" cy="34" r="2" fill="#10202a"/>

  <text x="64" y="103" text-anchor="middle" fill="#ffffff" font-family="Arial, Helvetica, sans-serif" font-size="13" font-weight="700">
    MySQL
  </text>
</svg>
