<svg id="svg" version="1.1" xmlns="http://www.w3.org/2000/svg" xmlns:xlink="http://www.w3.org/1999/xlink" width="400" height="400" viewBox="0, 0, 400,400"><g id="svgg"><path id="path0" d="M207.670 114.100 C 207.616 115.553,207.741 116.000,208.200 116.000 C 208.658 116.000,208.786 115.549,208.740 114.100 L 208.680 112.200 208.414 114.000 L 208.148 115.800 207.944 114.000 L 207.740 112.200 207.670 114.100 M246.000 116.400 C 246.000 116.620,246.362 116.800,246.805 116.800 C 247.248 116.800,247.923 116.959,248.305 117.153 C 248.687 117.348,249.503 117.743,250.119 118.031 C 253.228 119.488,256.432 123.527,257.993 127.959 L 258.894 130.518 258.634 193.559 C 258.264 283.219,257.624 353.726,257.176 354.180 C 256.969 354.389,256.796 354.929,256.791 355.380 C 256.786 355.831,256.430 356.650,256.000 357.200 C 255.570 357.750,255.214 358.378,255.209 358.596 C 255.196 359.176,250.715 363.315,249.467 363.900 C 245.286 365.860,244.229 366.000,233.645 366.000 C 226.300 366.000,223.309 366.136,222.674 366.500 C 222.017 366.876,216.386 367.051,200.000 367.207 L 178.200 367.414 210.300 367.502 C 227.955 367.549,242.400 367.435,242.400 367.247 C 242.400 367.059,243.084 366.814,243.921 366.701 C 248.559 366.079,254.441 361.784,256.537 357.487 C 258.402 353.666,258.376 354.435,258.660 293.700 L 258.932 235.600 291.807 235.600 L 324.683 235.600 324.941 232.540 C 325.279 228.546,325.279 123.054,324.941 119.060 L 324.683 116.000 285.341 116.000 C 259.380 116.000,246.000 116.136,246.000 116.400 " stroke="none" fill="#d99014" fill-rule="evenodd"></path><path id="path1" d="M222.600 32.800 C 222.160 32.989,221.303 33.156,220.695 33.172 C 220.087 33.187,219.277 33.359,218.895 33.553 C 218.513 33.748,217.662 34.153,217.005 34.453 C 213.402 36.102,208.400 42.752,208.400 45.894 C 208.400 46.612,208.220 47.200,208.000 47.200 C 207.529 47.200,207.430 109.201,207.894 113.241 L 208.188 115.800 208.457 114.000 L 208.725 112.200 208.662 114.285 L 208.600 116.371 227.200 116.485 C 237.430 116.548,245.860 116.465,245.933 116.300 C 246.007 116.135,263.772 116.000,285.412 116.000 L 324.758 116.000 324.907 118.100 C 324.989 119.255,325.027 103.100,324.991 82.200 C 324.924 43.561,324.918 43.200,324.333 43.200 C 324.150 43.200,324.000 42.926,324.000 42.592 C 324.000 41.280,319.847 36.000,318.815 36.000 C 318.618 36.000,318.212 35.775,317.913 35.500 C 317.063 34.718,315.670 34.000,315.005 34.000 C 314.672 34.000,314.400 33.820,314.400 33.600 C 314.400 33.380,313.691 33.200,312.824 33.200 C 311.957 33.200,311.136 33.020,311.000 32.800 C 310.690 32.299,223.766 32.299,222.600 32.800 M249.011 118.137 C 251.032 119.106,252.451 120.178,254.162 122.027 C 255.462 123.431,256.289 124.141,256.002 123.604 C 255.238 122.175,251.591 118.687,250.200 118.053 C 249.540 117.753,248.687 117.348,248.305 117.153 C 247.923 116.959,247.298 116.800,246.917 116.800 C 246.535 116.800,247.477 117.402,249.011 118.137 M258.034 129.200 C 258.046 129.530,258.211 130.160,258.400 130.600 L 258.744 131.400 258.766 130.600 C 258.778 130.160,258.613 129.530,258.400 129.200 C 258.055 128.667,258.015 128.667,258.034 129.200 M258.569 183.800 C 258.570 188.420,258.628 190.255,258.699 187.878 C 258.770 185.501,258.769 181.721,258.698 179.478 C 258.627 177.235,258.569 179.180,258.569 183.800 M258.175 270.800 C 258.175 276.630,258.231 279.015,258.299 276.100 C 258.367 273.185,258.367 268.415,258.299 265.500 C 258.231 262.585,258.175 264.970,258.175 270.800 M257.600 290.629 C 257.600 300.850,257.792 300.400,253.429 300.400 C 251.676 300.400,250.400 300.569,250.400 300.800 C 250.400 301.033,249.067 301.200,247.200 301.200 C 245.333 301.200,244.000 301.367,244.000 301.600 C 244.000 301.835,242.600 302.000,240.600 302.000 C 238.600 302.000,237.200 302.165,237.200 302.400 C 237.200 302.633,235.867 302.800,234.000 302.800 C 232.133 302.800,230.800 302.967,230.800 303.200 C 230.800 303.431,229.533 303.600,227.800 303.600 C 226.067 303.600,224.800 303.769,224.800 304.000 C 224.800 304.237,223.333 304.400,221.200 304.400 C 219.067 304.400,217.600 304.563,217.600 304.800 C 217.600 305.033,216.267 305.200,214.400 305.200 C 212.533 305.200,211.200 305.367,211.200 305.600 C 211.200 305.831,209.933 306.000,208.200 306.000 C 206.467 306.000,205.200 306.169,205.200 306.400 C 205.200 306.633,203.867 306.800,202.000 306.800 C 200.133 306.800,198.800 306.967,198.800 307.200 C 198.800 307.433,197.467 307.600,195.600 307.600 L 192.400 307.600 192.398 312.700 C 192.392 325.482,191.561 353.486,191.155 354.600 C 188.936 360.689,182.063 366.800,177.435 366.800 C 176.892 366.800,176.364 366.935,176.262 367.100 C 175.877 367.721,221.223 367.209,222.442 366.578 C 223.331 366.119,225.631 366.000,233.652 366.000 C 244.228 366.000,245.286 365.860,249.467 363.900 C 250.715 363.315,255.196 359.176,255.209 358.596 C 255.214 358.378,255.570 357.750,256.000 357.200 C 256.430 356.650,256.786 355.831,256.791 355.380 C 256.796 354.929,256.979 354.381,257.197 354.163 C 257.644 353.716,258.309 282.000,257.866 282.000 C 257.720 282.000,257.600 285.883,257.600 290.629 " stroke="none" fill="#e5a814" fill-rule="evenodd"></path><path id="path2" d="M154.000 116.394 C 154.000 116.618,153.561 116.800,153.024 116.800 C 152.487 116.800,151.936 116.980,151.800 117.200 C 151.664 117.420,151.103 117.600,150.553 117.600 C 149.988 117.600,149.660 117.774,149.800 118.000 C 149.936 118.220,149.767 118.400,149.424 118.400 C 149.081 118.400,148.800 118.580,148.800 118.800 C 148.800 119.020,148.506 119.200,148.147 119.200 C 147.490 119.200,146.000 120.630,146.000 121.261 C 146.000 121.448,145.730 121.600,145.400 121.600 C 145.070 121.600,144.800 121.876,144.800 122.213 C 144.800 122.549,144.531 122.928,144.202 123.054 C 143.874 123.181,143.695 123.430,143.806 123.610 C 143.917 123.789,143.736 124.207,143.404 124.539 C 143.072 124.871,142.800 125.426,142.800 125.771 C 142.800 126.117,142.620 126.400,142.400 126.400 C 142.180 126.400,142.000 127.019,142.000 127.776 C 142.000 128.533,141.820 129.264,141.600 129.400 C 141.338 129.562,141.200 141.737,141.200 164.624 L 141.200 199.600 114.100 199.647 C 99.195 199.673,86.865 199.673,86.700 199.647 C 86.535 199.621,86.400 199.780,86.400 200.000 C 86.400 200.220,85.860 200.400,85.200 200.400 C 84.540 200.400,84.000 200.550,84.000 200.732 C 84.000 200.915,83.505 201.320,82.900 201.632 C 82.295 201.944,81.710 202.293,81.600 202.409 C 81.490 202.524,80.910 202.930,80.311 203.311 C 79.263 203.978,76.400 208.001,76.400 208.808 C 76.400 209.023,76.220 209.200,76.000 209.200 C 75.780 209.200,75.600 209.650,75.600 210.200 C 75.600 210.750,75.419 211.200,75.198 211.200 C 74.646 211.200,74.652 355.461,75.204 355.803 C 75.422 355.937,75.600 356.397,75.600 356.824 C 75.600 357.251,75.780 357.600,76.000 357.600 C 76.220 357.600,76.400 357.870,76.400 358.200 C 76.400 358.530,76.568 358.800,76.773 358.800 C 77.153 358.800,77.823 360.354,77.679 360.900 C 77.636 361.065,77.793 361.200,78.029 361.200 C 78.621 361.200,79.618 362.249,79.314 362.552 C 79.178 362.689,79.377 362.800,79.757 362.800 C 80.137 362.800,80.365 362.935,80.266 363.100 C 80.048 363.460,80.803 364.149,81.616 364.332 C 81.937 364.404,82.523 364.754,82.918 365.110 C 83.313 365.465,84.025 365.816,84.500 365.888 C 84.976 365.961,85.463 366.175,85.583 366.364 C 86.258 367.433,155.408 368.159,156.058 367.105 C 156.294 366.723,158.987 366.574,167.085 366.492 C 172.978 366.433,178.160 366.226,178.600 366.032 C 179.040 365.839,180.030 365.449,180.800 365.165 C 185.465 363.446,188.664 359.918,190.744 354.200 C 191.043 353.378,191.324 335.533,191.634 297.600 C 192.234 224.385,192.259 223.200,193.237 223.200 C 193.657 223.200,194.000 223.020,194.000 222.800 C 194.000 222.567,195.333 222.400,197.200 222.400 C 199.067 222.400,200.400 222.233,200.400 222.000 C 200.400 221.763,201.867 221.600,204.000 221.600 C 206.133 221.600,207.600 221.437,207.600 221.200 C 207.600 220.969,208.867 220.800,210.600 220.800 C 212.333 220.800,213.600 220.631,213.600 220.400 C 213.600 220.167,214.933 220.000,216.800 220.000 C 218.667 220.000,220.000 219.833,220.000 219.600 C 220.000 219.363,221.467 219.200,223.600 219.200 C 225.733 219.200,227.200 219.037,227.200 218.800 C 227.200 218.569,228.467 218.400,230.200 218.400 C 231.933 218.400,233.200 218.231,233.200 218.000 C 233.200 217.767,234.533 217.600,236.400 217.600 C 238.267 217.600,239.600 217.433,239.600 217.200 C 239.600 216.969,240.867 216.800,242.600 216.800 C 244.333 216.800,245.600 216.631,245.600 216.400 C 245.600 216.163,247.067 216.000,249.200 216.000 C 251.333 216.000,252.800 215.837,252.800 215.600 C 252.800 215.379,253.851 215.200,255.152 215.200 L 257.503 215.200 257.775 184.900 C 258.295 126.799,258.332 130.967,257.266 128.000 C 255.699 123.638,252.854 120.506,248.490 118.337 L 245.800 117.000 226.800 116.686 C 192.113 116.112,154.000 115.959,154.000 116.394 " stroke="none" fill="#f9d245" fill-rule="evenodd"></path><path id="path3" d="M324.895 233.500 L 324.800 235.600 291.866 235.600 L 258.932 235.600 258.660 293.700 C 258.376 354.435,258.402 353.666,256.537 357.487 C 254.441 361.784,248.559 366.079,243.921 366.701 C 238.726 367.398,246.114 367.600,276.800 367.600 C 299.467 367.600,311.200 367.464,311.200 367.200 C 311.200 366.980,311.920 366.800,312.800 366.800 C 313.680 366.800,314.400 366.620,314.400 366.400 C 314.400 366.180,314.816 366.000,315.325 366.000 C 315.833 366.000,316.636 365.640,317.108 365.200 C 317.580 364.760,318.166 364.400,318.409 364.400 C 318.922 364.400,322.800 360.516,322.800 360.002 C 322.800 359.812,323.025 359.412,323.300 359.113 C 325.074 357.183,324.994 359.435,325.106 308.600 C 325.205 263.447,325.108 228.786,324.895 233.500 " stroke="none" fill="#c56e14" fill-rule="evenodd"></path><path id="path4" d="M207.865 116.400 C 207.975 116.510,216.556 116.690,226.933 116.800 L 245.800 117.000 248.490 118.337 C 251.218 119.693,253.353 121.466,255.310 124.000 C 255.905 124.770,256.393 125.182,256.396 124.915 C 256.407 123.673,251.587 119.312,248.717 117.967 L 245.800 116.600 233.800 116.498 C 227.200 116.442,218.620 116.352,214.732 116.298 C 210.845 116.244,207.755 116.290,207.865 116.400 M256.605 126.300 C 258.398 130.615,258.303 125.847,257.775 184.900 L 257.503 215.200 255.152 215.200 C 253.851 215.200,252.800 215.379,252.800 215.600 C 252.800 215.837,251.333 216.000,249.200 216.000 C 247.067 216.000,245.600 216.163,245.600 216.400 C 245.600 216.631,244.333 216.800,242.600 216.800 C 240.867 216.800,239.600 216.969,239.600 217.200 C 239.600 217.433,238.267 217.600,236.400 217.600 C 234.533 217.600,233.200 217.767,233.200 218.000 C 233.200 218.231,231.933 218.400,230.200 218.400 C 228.467 218.400,227.200 218.569,227.200 218.800 C 227.200 219.037,225.733 219.200,223.600 219.200 C 221.467 219.200,220.000 219.363,220.000 219.600 C 220.000 219.833,218.667 220.000,216.800 220.000 C 214.933 220.000,213.600 220.167,213.600 220.400 C 213.600 220.631,212.333 220.800,210.600 220.800 C 208.867 220.800,207.600 220.969,207.600 221.200 C 207.600 221.437,206.133 221.600,204.000 221.600 C 201.867 221.600,200.400 221.763,200.400 222.000 C 200.400 222.233,199.067 222.400,197.200 222.400 C 195.333 222.400,194.000 222.567,194.000 222.800 C 194.000 223.020,193.657 223.200,193.237 223.200 C 192.259 223.200,192.234 224.385,191.634 297.600 C 191.324 335.533,191.043 353.378,190.744 354.200 C 188.600 360.095,183.146 365.600,179.449 365.600 C 179.118 365.600,178.736 365.780,178.600 366.000 C 178.446 366.249,174.613 366.400,168.426 366.400 C 158.532 366.400,156.000 366.576,156.000 367.262 C 156.000 367.748,175.914 367.662,176.216 367.174 C 176.343 366.969,176.892 366.800,177.435 366.800 C 182.063 366.800,188.936 360.689,191.155 354.600 C 191.561 353.486,192.392 325.482,192.398 312.700 L 192.400 307.600 195.600 307.600 C 197.467 307.600,198.800 307.433,198.800 307.200 C 198.800 306.967,200.133 306.800,202.000 306.800 C 203.867 306.800,205.200 306.633,205.200 306.400 C 205.200 306.169,206.467 306.000,208.200 306.000 C 209.933 306.000,211.200 305.831,211.200 305.600 C 211.200 305.367,212.533 305.200,214.400 305.200 C 216.267 305.200,217.600 305.033,217.600 304.800 C 217.600 304.563,219.067 304.400,221.200 304.400 C 223.333 304.400,224.800 304.237,224.800 304.000 C 224.800 303.769,226.067 303.600,227.800 303.600 C 229.533 303.600,230.800 303.431,230.800 303.200 C 230.800 302.967,232.133 302.800,234.000 302.800 C 235.867 302.800,237.200 302.633,237.200 302.400 C 237.200 302.165,238.600 302.000,240.600 302.000 C 242.600 302.000,244.000 301.835,244.000 301.600 C 244.000 301.367,245.333 301.200,247.200 301.200 C 249.067 301.200,250.400 301.033,250.400 300.800 C 250.400 300.569,251.676 300.400,253.429 300.400 C 255.367 300.400,256.643 300.214,256.973 299.884 C 258.190 298.668,259.433 134.431,258.259 129.998 C 257.532 127.254,256.896 125.600,256.567 125.600 C 256.428 125.600,256.445 125.915,256.605 126.300 " stroke="none" fill="#ecb129" fill-rule="evenodd"></path></g></svg>